<svg version="1.1" id="Layer_1" xmlns="http://www.w3.org/2000/svg" xmlns:xlink="http://www.w3.org/1999/xlink" x="0px" y="0px"
     width="100%" viewBox="0 0 1024 1024" enable-background="new 0 0 1024 1024" xml:space="preserve">
<path fill="#FEFFFE" opacity="1.000000" stroke="none"
      d="
M474.000000,1025.000000
	C316.000000,1025.000000 158.500000,1025.000000 1.000000,1025.000000
	C1.000000,683.666687 1.000000,342.333344 1.000000,1.000000
	C342.333344,1.000000 683.666687,1.000000 1025.000000,1.000000
	C1025.000000,342.333344 1025.000000,683.666687 1025.000000,1025.000000
	C841.500000,1025.000000 658.000000,1025.000000 474.000000,1025.000000
M851.890564,498.004059
	C851.890564,498.004059 851.901794,498.101318 851.961975,497.368073
	C851.280762,496.597412 850.599548,495.826782 849.976379,494.990509
	C849.976379,494.990509 849.940369,495.069916 849.973511,494.335785
	C849.274170,493.575317 848.574829,492.814819 847.353333,491.717407
	C846.552429,490.513000 845.751465,489.308594 844.979065,487.335785
	C843.881714,486.270355 842.784424,485.204926 841.143677,483.782928
	C837.715698,480.291565 834.287659,476.800171 830.900146,472.559875
	C827.346069,469.289459 823.925476,465.852661 820.166809,462.837311
	C818.819641,461.756561 816.656738,461.692657 814.828735,461.146149
	C814.828735,461.146149 814.828857,461.187958 814.854187,460.445923
	C813.191406,459.689606 811.528687,458.933319 809.824463,458.161835
	C809.824463,458.161835 809.804749,458.201294 809.873962,457.459869
	C806.645996,452.971313 799.766663,450.431519 795.717712,452.376709
	C795.598572,452.533630 795.649902,452.673431 796.009827,453.005951
	C796.009827,453.005951 796.184631,453.186310 796.290161,453.350616
	C796.290161,453.350616 796.303223,453.545532 796.185791,454.287842
	C797.212280,455.462585 798.055969,456.898712 799.296997,457.766663
	C804.580200,461.461517 810.091064,464.838013 815.287598,468.646118
	C817.536133,470.293915 819.224731,472.705780 821.167664,474.770569
	C813.042847,471.362640 805.721313,467.420013 798.192139,463.924408
	C796.107544,462.956573 793.406128,463.317383 790.339539,463.003693
	C789.563538,462.629913 788.787476,462.256165 787.937256,461.312988
	C787.285950,461.223114 786.634644,461.133240 785.404297,461.010193
	C784.905334,460.747498 784.406372,460.484802 783.864990,459.463379
	C778.664856,457.375641 773.558533,454.984833 768.223572,453.332458
	C765.686768,452.546692 762.714111,453.167938 759.199280,453.189117
	C758.468750,453.088593 757.738220,452.988068 756.808350,452.124207
	C750.813171,449.526672 740.892944,449.712830 738.221130,453.065857
	C740.454834,453.065857 742.214417,453.065857 744.289856,453.496857
	C744.866821,453.341400 745.443787,453.185974 746.724487,453.020294
	C747.193970,453.028290 747.663452,453.036285 748.348816,453.595337
	C748.892639,453.821747 749.436401,454.048126 750.081787,454.820801
	C750.732971,454.850586 751.384094,454.880341 752.702454,454.929077
	C753.129272,455.048645 753.556091,455.168182 754.145325,455.936005
	C758.077698,457.672333 761.909607,459.720856 765.979370,461.030212
	C768.500610,461.841370 771.382935,461.530060 774.752075,461.804260
	C775.517944,462.165222 776.283875,462.526184 777.083618,463.608643
	C782.440674,469.619781 789.957092,471.406616 797.084351,473.814514
	C797.084351,473.814514 797.150024,473.820496 797.108643,474.546082
	C801.858948,479.575378 806.785156,484.452301 811.311584,489.675659
	C816.096802,495.197723 820.657593,500.933380 825.021729,506.795105
	C828.415466,511.353485 832.010498,515.327148 838.589539,516.396790
	C839.805969,518.898560 841.022339,521.400391 841.622498,524.326599
	C840.552246,528.430054 842.071106,530.964661 846.693604,532.456421
	C848.511169,537.619385 850.328796,542.782349 851.649475,548.246765
	C852.050293,548.835449 852.451111,549.424133 853.068298,550.630188
	C853.109924,551.063171 853.151550,551.496216 852.685913,552.217346
	C853.053528,552.817383 853.421143,553.417419 854.002380,554.644714
	C854.033020,555.083923 854.063660,555.523193 853.492676,556.456055
	C853.375183,560.264893 852.927429,564.103638 853.267883,567.871094
	C853.462524,570.024536 854.817688,572.131470 855.931458,574.100342
	C856.191895,574.560608 857.592590,574.375854 858.468628,574.487854
	C858.263123,573.949219 858.057617,573.410645 857.822754,572.095276
	C857.919128,571.065430 858.015564,570.035583 858.880920,568.801453
	C859.013550,563.691345 859.419189,558.565979 859.136536,553.479004
	C859.031982,551.597595 857.308533,549.806091 856.091736,547.266418
	C856.014526,546.527893 855.937378,545.789307 856.343994,544.762573
	C855.993286,544.167358 855.642578,543.572144 855.055847,542.264954
	C854.960754,541.521545 854.865662,540.778137 855.474976,539.724487
	C855.989624,536.917725 856.504211,534.110962 857.016541,531.316589
	C860.211975,533.857727 863.507874,536.478821 866.803772,539.099854
	C867.498596,538.598938 868.193359,538.098083 868.888184,537.597168
	C866.265503,529.241699 863.789307,520.835327 860.916626,512.566711
	C860.201233,510.507629 858.204834,508.893616 856.327881,506.614838
	C855.189026,504.421783 854.050171,502.228760 853.401489,499.694672
	C852.890076,499.162903 852.378723,498.631134 851.890564,498.004059
M794.002136,669.999268
	C794.002136,669.999268 793.969727,669.979919 794.698853,669.988220
	C795.473267,669.057922 796.247681,668.127686 797.438110,666.684448
	C799.210876,665.088257 800.983643,663.492065 803.526855,661.957275
	C808.703735,659.303101 814.169312,656.929077 815.296265,649.524719
	C816.220032,648.691467 817.143799,647.858276 818.748352,647.004272
	C819.374207,646.627930 820.000061,646.251526 820.625916,645.875183
	C819.447021,644.906494 818.268066,643.937744 816.564819,642.577271
	C815.710083,641.050903 814.855286,639.524597 813.994263,637.182068
	C813.968445,634.277405 814.130920,631.354553 813.851501,628.474487
	C813.660645,626.507324 812.853027,624.599915 812.530029,621.946655
	C814.438293,617.303711 816.346619,612.660767 818.965881,607.898865
	C820.981628,607.019531 822.997314,606.140198 825.659241,605.056519
	C826.108582,605.045593 826.557922,605.034607 827.561218,605.592346
	C831.842712,605.913574 836.471436,607.373718 839.013550,602.019531
	C839.013550,602.019531 839.088501,602.039795 839.854980,601.829346
	C839.917480,597.892212 839.980042,593.955017 839.917480,589.186584
	C840.001099,587.792908 840.084778,586.399292 840.927307,584.790344
	C841.154724,578.813354 841.403320,572.836853 841.535645,566.857727
	C841.541199,566.606323 840.464417,566.330933 839.979370,566.026489
	C839.979370,566.026489 839.931946,566.110229 839.856567,565.350403
	C835.904663,564.567993 831.952759,563.785645 827.226746,563.042542
	C825.488037,562.632690 823.749268,562.222778 821.888672,561.030823
	C821.591125,558.798035 821.689575,556.411255 820.896606,554.371094
	C819.889526,551.779846 818.159302,549.469788 816.609192,546.791504
	C816.609192,546.791504 816.767395,546.560608 816.893677,545.755615
	C816.253784,544.840210 815.613953,543.924805 814.510620,542.650818
	C814.339233,542.101074 814.167786,541.551270 814.545166,540.528564
	C814.329224,538.274475 814.113220,536.020325 814.009827,533.180542
	C814.642151,532.440979 815.274536,531.701416 816.618347,530.929199
	C824.060425,526.221558 826.414185,521.565918 821.994263,514.628235
	C817.526855,507.616089 810.943970,501.927338 805.085632,495.853851
	C804.275391,495.013916 802.303345,495.294739 800.438660,494.887207
	C800.167786,494.702820 800.004150,494.449219 799.966675,493.327698
	C798.818420,492.577972 797.391052,490.957184 796.567566,491.221008
	C791.525879,492.836365 786.505615,494.718781 783.993896,500.015839
	C783.993896,500.015839 784.066406,500.053223 783.261475,500.018311
	C781.680664,500.413635 780.099792,500.808929 777.865295,501.159302
	C776.583862,500.415283 775.302490,499.671295 773.900391,498.248413
	C770.386841,496.183624 767.090332,493.176361 763.302185,492.303986
	C759.027283,491.319489 758.471375,489.303253 757.771423,485.606323
	C757.069580,481.899658 754.611267,478.525543 752.683838,474.279388
	C752.300049,471.189056 750.811829,469.565247 747.445435,469.955750
	C745.997925,470.123718 744.490540,469.775940 742.753662,468.942108
	C742.200623,468.642059 741.659668,468.106750 741.092712,468.077637
	C733.697327,467.697968 726.291199,467.083038 718.904663,467.255341
	C716.752136,467.305573 714.000000,469.194977 712.688232,471.060760
	C710.879456,473.633575 710.176636,476.983917 708.323303,480.103027
	C706.430298,481.058075 704.537231,482.013153 702.232361,482.249542
	C692.910278,443.811829 677.676453,408.127838 652.870605,376.968781
	C637.126099,357.191864 617.594727,343.756714 591.661499,341.552826
	C578.782715,340.458313 566.251953,342.282867 553.771301,346.115234
	C554.329895,348.023682 554.744019,349.438568 554.843201,351.157562
	C554.843201,351.157562 554.543030,351.476227 553.873718,351.305664
	C538.389221,340.629974 521.194763,334.375671 502.715179,331.328156
	C478.766510,327.378723 458.636353,333.298096 443.493073,353.286194
	C431.701202,368.850677 420.868896,384.999268 412.786530,402.799988
	C410.424561,408.002014 409.507996,413.860352 407.526215,419.925781
	C407.219971,426.650757 409.047119,432.593506 413.332855,437.932220
	C419.490906,445.603210 427.879608,449.740723 436.426941,453.986877
	C442.903137,457.204132 450.567719,460.276794 454.593506,465.715759
	C463.237793,477.394440 473.296295,487.088837 485.121979,495.222717
	C485.662170,495.594299 486.067932,496.156616 486.557892,496.606567
	C493.537781,503.017273 500.610931,509.105621 509.400574,513.246033
	C521.043640,518.730530 534.541443,516.692749 538.037842,499.357635
	C540.627930,487.849518 543.218018,476.341370 545.813049,464.811310
	C548.790100,478.007172 548.894714,491.225464 544.345764,504.105103
	C540.821350,514.083801 534.688171,521.636841 523.000427,522.374756
	C511.602997,523.094360 502.306000,518.115662 493.834534,511.285614
	C487.491028,506.171204 481.961365,499.867188 475.135925,495.578247
	C467.309296,490.660187 460.707825,484.969757 455.803619,477.212982
	C451.587494,470.544464 445.670532,465.821594 438.708801,462.266968
	C432.333893,459.011993 425.812042,455.985474 419.697083,452.291870
	C400.879333,440.925415 395.375092,423.611145 404.109039,403.479431
	C407.340027,396.032104 411.106049,388.816895 414.874237,380.984192
	C412.488251,380.699127 410.394897,380.307953 408.288818,380.219604
	C390.442139,379.470978 372.626862,379.673767 355.010773,383.038849
	C309.096954,391.809479 274.187805,416.102661 251.415344,457.167053
	C246.661057,465.740265 242.806137,474.807190 238.295135,483.521515
	C231.271484,497.089783 223.626205,510.352295 217.030777,524.121094
	C211.866180,534.902832 206.307663,545.207703 197.266647,553.229431
	C195.989014,554.362976 194.058167,555.781067 192.644760,555.577087
	C182.662003,554.136230 176.650726,559.886475 171.444275,566.948792
	C167.180115,572.732910 164.975128,579.293762 164.833252,586.687134
	C171.858749,584.417786 178.300598,582.691528 184.463135,580.257996
	C192.465256,577.098083 198.870560,572.400330 198.185654,562.314941
	C198.110519,561.208618 199.237503,559.605225 200.265259,558.904846
	C208.809326,553.082214 215.543320,545.577698 221.174805,536.999695
	C224.775085,531.515625 228.371964,526.029358 231.970383,520.544067
	C232.121170,529.808716 231.129745,538.718384 231.051987,547.635986
	C230.918381,562.956482 231.603882,578.283752 231.495026,593.604919
	C231.320541,618.161682 225.227402,641.696838 218.791183,665.194092
	C216.744949,672.664429 216.038345,680.514282 214.913010,688.218872
	C214.344269,692.112671 215.962051,694.015686 220.276215,693.733948
	C225.086517,693.419800 229.954926,693.466675 234.763687,693.821716
	C238.750671,694.116028 240.674316,693.111511 241.438156,688.781372
	C242.401016,683.322815 246.344742,680.063293 250.488800,680.324097
	C255.826141,680.659973 257.471741,684.776550 258.806854,689.036560
	C259.244476,690.432922 259.490295,691.889282 259.823822,693.318237
	C260.261871,693.290588 260.699921,693.262939 261.137970,693.235352
	C261.507660,691.527893 261.716644,689.765381 262.278412,688.123596
	C263.732361,683.874390 265.716644,679.831177 271.007660,679.871216
	C276.354431,679.911621 278.277161,683.764160 279.231476,688.350952
	C279.597656,690.110901 280.085175,691.845642 280.517395,693.591797
	C281.087982,693.483948 281.658600,693.376038 282.229218,693.268127
	C281.603333,687.780884 280.903717,682.300842 280.365845,676.804932
	C278.932190,662.156067 282.442566,649.720093 294.700256,640.069641
	C303.949860,632.787354 312.145508,624.174561 320.953217,616.314148
	C322.250763,615.156128 324.385620,614.209473 326.054901,614.322327
	C332.857941,614.781982 339.613464,615.976990 346.417450,616.384949
	C372.005768,617.919189 397.432556,616.789185 422.131622,609.326233
	C433.341980,605.938965 444.177032,601.309814 455.468292,597.138306
	C460.361877,606.941772 462.866516,617.732727 462.805084,629.014526
	C462.700714,648.174133 462.238464,667.331604 461.973022,686.490601
	C461.873566,693.669312 461.932709,693.664062 468.869385,693.683594
	C473.035583,693.695312 477.221954,693.480530 481.362762,693.816833
	C486.446655,694.229614 490.285461,693.876343 491.059113,687.379028
	C491.521790,683.493286 494.508820,681.036560 498.826538,680.944397
	C503.195587,680.851257 505.490021,683.494446 506.941528,687.138062
	C507.756104,689.182800 508.331635,691.322815 509.014862,693.419861
	C512.002869,687.304504 512.148071,679.207886 522.372681,680.762939
	C524.806885,684.752808 527.241028,688.742676 530.081238,693.398010
	C529.504761,689.667725 529.453369,686.087158 528.365784,682.855286
	C523.412598,668.136047 523.121094,653.147156 525.039124,637.947693
	C525.496338,634.324707 525.681702,630.667542 526.345703,626.315918
	C528.589905,615.068909 530.776001,603.809998 533.090332,592.577454
	C537.939697,569.041626 548.432556,548.744995 567.192871,533.155457
	C570.876709,530.094177 574.609070,528.266174 579.645569,527.863098
	C586.866333,527.285278 593.959717,525.214905 601.143127,523.991028
	C602.690430,523.727417 604.704102,523.856934 605.966980,524.654297
	C613.397156,529.345581 620.668701,534.288269 628.065186,539.698059
	C628.700500,539.829834 629.335815,539.961548 630.553040,540.104980
	C631.040161,540.389282 631.527222,540.673645 632.091187,541.614685
	C633.063049,541.738159 634.034973,541.861633 635.812683,541.989136
	C637.884583,542.340454 639.564026,542.360779 638.512268,539.387024
	C637.541748,536.642822 636.703613,533.851868 636.318115,530.762817
	C635.871704,530.174805 635.425354,529.586731 634.653442,528.638672
	C634.653442,528.638672 634.537598,528.167297 635.245667,527.887878
	C637.540161,526.573059 639.834717,525.258301 642.667358,524.119812
	C643.103882,524.477356 643.540405,524.834961 643.999451,525.864136
	C644.994568,526.257629 645.989746,526.651062 647.668030,527.136414
	C649.806091,528.359619 651.944092,529.582825 654.038391,531.599487
	C654.921204,532.747192 655.844421,533.866394 656.676941,535.049500
	C657.820679,536.674500 658.895630,538.347839 659.160828,539.939453
	C658.540955,540.778320 657.290344,541.722717 657.409912,542.437927
	C657.939636,545.605774 658.862793,548.707764 658.882568,552.061707
	C655.877686,553.566406 655.159302,551.903015 654.971985,549.316406
	C654.793030,546.843811 654.059875,544.777405 650.618835,544.447083
	C650.441772,543.624634 650.264771,542.802185 650.720886,541.610962
	C650.621765,539.250122 650.522583,536.889343 650.423462,534.528442
	C648.397400,535.081299 645.013733,535.126221 644.583496,536.276062
	C642.842041,540.931274 639.219543,545.471558 641.962646,551.619202
	C641.654175,552.413940 641.345703,553.208679 640.428589,554.058716
	C639.947083,554.614624 639.465576,555.170532 638.349731,555.946899
	C637.905090,555.977844 637.460510,556.008789 636.504089,555.458191
	C631.500916,556.103149 626.479858,556.643250 621.511353,557.491516
	C620.635925,557.640991 619.319275,559.085022 619.327332,559.920471
	C619.395081,566.944824 619.724121,573.966797 620.107056,581.893127
	C620.049927,584.936951 619.992798,587.980774 619.364258,591.484802
	C619.105530,593.450684 618.846802,595.416504 618.588013,597.382324
	C620.716187,597.277527 622.844299,597.172668 625.764038,597.033630
	C628.837585,597.794922 631.911133,598.556213 635.179016,599.975098
	C638.172119,600.983582 640.380493,602.604126 640.693420,606.124084
	C640.754150,606.807739 641.939148,607.391541 642.924805,608.657166
	C643.257019,609.781067 643.589233,610.905029 643.424805,612.542419
	C643.617371,615.291687 643.607422,618.074646 644.058472,620.780823
	C644.525330,623.582520 645.439331,626.309753 646.040222,629.648438
	C645.682007,630.094666 645.323730,630.540894 644.276611,631.064392
	C641.761658,634.239746 638.958313,637.241699 636.888733,640.684692
	C636.167847,641.884033 636.610840,644.793030 637.631592,645.861450
	C643.250183,651.742310 649.203491,657.304199 655.063538,662.953064
	C656.372253,664.214600 657.636475,665.592651 659.151611,666.553955
	C661.806641,668.238281 664.658691,669.877197 667.000000,666.000000
	C667.000000,666.000000 666.975220,665.983032 667.684814,665.997375
	C668.460327,665.341980 669.235840,664.686646 670.326050,663.483459
	C671.234741,662.996094 672.143433,662.508789 673.747986,662.010010
	C674.504456,661.351318 675.260925,660.692688 676.000000,659.999268
	C676.000000,659.999268 676.033142,660.020142 676.782715,660.006897
	C679.410095,660.287476 682.033875,660.611511 684.666199,660.833252
	C686.430603,660.981873 688.207275,660.985352 690.700867,661.139465
	C694.717468,662.701111 698.834412,664.056213 702.698181,665.932556
	C704.120728,666.623413 705.514221,668.389832 705.935425,669.934448
	C707.152893,674.398254 707.619629,679.072388 708.928223,683.502380
	C709.342468,684.904602 711.424255,686.693359 712.836853,686.780396
	C722.762817,687.392029 732.715149,687.562378 742.654846,687.974426
	C745.232361,688.081177 746.632080,687.224976 747.165894,684.572510
	C748.080566,680.027771 749.262634,675.536743 750.971985,670.908203
	C752.109497,670.368958 753.246277,669.828247 754.384644,669.290833
	C757.927368,667.618164 761.470764,665.946838 765.591553,663.860657
	C768.397095,662.583496 771.202637,661.306274 774.427368,660.553406
	C775.300964,660.690979 776.174500,660.828491 776.996826,660.994995
	C776.996826,660.994995 777.032532,660.947815 777.013062,661.690002
	C779.279602,667.888489 784.015930,670.874695 790.734802,670.058533
	C791.152405,670.277039 791.569946,670.495483 792.193054,671.173950
	C792.789124,670.771729 793.385132,670.369507 794.002136,669.999268
M601.725464,588.292786
	C600.774841,586.837524 599.824219,585.382324 598.496399,583.395630
	C589.041138,569.631714 579.585876,555.867737 569.498291,541.183411
	C563.986206,548.421387 557.996521,555.166382 553.291687,562.712524
	C545.102295,575.847534 541.152832,590.721497 537.852112,605.705444
	C537.562500,607.020142 538.494934,609.134460 539.560059,610.122192
	C543.458496,613.737122 547.731567,616.943909 551.720032,620.466858
	C559.905640,627.697021 564.254822,636.751404 563.978821,647.767883
	C563.820557,654.084534 563.251587,660.390137 563.053345,666.706604
	C562.762146,675.984436 565.953064,680.594543 575.287292,680.622375
	C591.032166,680.669250 606.781311,679.299438 623.144531,678.707397
	C624.166443,679.496338 625.258911,680.209656 626.199158,681.086182
	C633.468262,687.862732 641.515808,693.456360 650.433289,697.746155
	C651.159912,696.980957 651.886475,696.215759 652.613037,695.450500
	C651.331726,695.110779 649.826538,695.089722 648.808899,694.374817
	C644.867432,691.605713 640.816895,688.898987 637.310852,685.628784
	C633.749329,682.306763 630.781799,678.347961 627.264160,673.808960
	C626.155029,668.875488 625.045959,663.942078 624.641541,659.022156
	C625.020325,659.343323 625.465759,659.611694 625.768372,659.993286
	C642.683044,681.320129 665.160095,693.881287 691.025879,700.717712
	C698.690796,702.743591 706.764038,703.224670 714.650146,704.413574
	C714.738037,703.941467 714.825928,703.469360 714.913818,702.997253
	C714.364929,702.762146 713.836731,702.411377 713.264099,702.308716
	C689.227478,697.994446 667.564392,688.441467 648.564270,673.014893
	C636.060852,662.863037 625.433289,651.114441 617.880371,635.975220
	C615.035400,619.446899 612.304077,602.880066 601.725464,588.292786
M366.509583,693.728760
	C380.771271,693.728760 395.032959,693.728760 409.294189,693.728760
	C405.633087,669.807800 402.062500,646.478394 398.624359,624.014160
	C376.833527,624.014160 355.190918,624.014160 333.142365,624.014160
	C333.622284,625.129639 333.915314,626.046814 334.383606,626.863464
	C340.603424,637.710449 344.213470,649.405212 345.367340,661.809326
	C346.044617,669.090210 346.202850,676.418457 346.647675,683.722168
	C347.137787,691.770691 349.120636,693.662415 357.026459,693.729736
	C359.855835,693.753784 362.685577,693.730957 366.509583,693.728760
M652.453918,698.486450
	C652.453918,698.486450 652.501221,698.494568 652.453918,698.486450
z"/>
    <path fill="#3394C7" opacity="1.000000" stroke="none"
          d="
M632.014343,540.957947
	C631.527222,540.673645 631.040161,540.389282 630.073486,539.881714
	C629.060547,539.487671 628.527100,539.316956 627.993652,539.146240
	C620.668701,534.288269 613.397156,529.345581 605.966980,524.654297
	C604.704102,523.856934 602.690430,523.727417 601.143127,523.991028
	C593.959717,525.214905 586.866333,527.285278 579.645569,527.863098
	C574.609070,528.266174 570.876709,530.094177 567.192871,533.155457
	C548.432556,548.744995 537.939697,569.041626 533.090332,592.577454
	C530.776001,603.809998 528.589905,615.068909 525.786743,626.612671
	C524.105774,624.504944 522.983765,622.100342 521.861816,619.695801
	C521.007996,621.377625 520.984497,623.080505 521.011597,624.782532
	C521.306030,643.280151 521.608398,661.777527 521.908569,680.275024
	C512.148071,679.207886 512.002869,687.304504 509.014862,693.419861
	C508.331635,691.322815 507.756104,689.182800 506.941528,687.138062
	C505.490021,683.494446 503.195587,680.851257 498.826538,680.944397
	C494.508820,681.036560 491.521790,683.493286 491.059113,687.379028
	C490.285461,693.876343 486.446655,694.229614 481.362762,693.816833
	C477.221954,693.480530 473.035583,693.695312 468.869385,693.683594
	C461.932709,693.664062 461.873566,693.669312 461.973022,686.490601
	C462.238464,667.331604 462.700714,648.174133 462.805084,629.014526
	C462.866516,617.732727 460.361877,606.941772 455.468292,597.138306
	C444.177032,601.309814 433.341980,605.938965 422.131622,609.326233
	C397.432556,616.789185 372.005768,617.919189 346.417450,616.384949
	C339.613464,615.976990 332.857941,614.781982 326.054901,614.322327
	C324.385620,614.209473 322.250763,615.156128 320.953217,616.314148
	C312.145508,624.174561 303.949860,632.787354 294.700256,640.069641
	C282.442566,649.720093 278.932190,662.156067 280.365845,676.804932
	C280.903717,682.300842 281.603333,687.780884 282.229218,693.268127
	C281.658600,693.376038 281.087982,693.483948 280.517395,693.591797
	C280.085175,691.845642 279.597656,690.110901 279.231476,688.350952
	C278.277161,683.764160 276.354431,679.911621 271.007660,679.871216
	C265.716644,679.831177 263.732361,683.874390 262.278412,688.123596
	C261.716644,689.765381 261.507660,691.527893 261.137970,693.235352
	C260.699921,693.262939 260.261871,693.290588 259.823822,693.318237
	C259.490295,691.889282 259.244476,690.432922 258.806854,689.036560
	C257.471741,684.776550 255.826141,680.659973 250.488800,680.324097
	C246.344742,680.063293 242.401016,683.322815 241.438156,688.781372
	C240.674316,693.111511 238.750671,694.116028 234.763687,693.821716
	C229.954926,693.466675 225.086517,693.419800 220.276215,693.733948
	C215.962051,694.015686 214.344269,692.112671 214.913010,688.218872
	C216.038345,680.514282 216.744949,672.664429 218.791183,665.194092
	C225.227402,641.696838 231.320541,618.161682 231.495026,593.604919
	C231.603882,578.283752 230.918381,562.956482 231.051987,547.635986
	C231.129745,538.718384 232.121170,529.808716 231.970383,520.544067
	C228.371964,526.029358 224.775085,531.515625 221.174805,536.999695
	C215.543320,545.577698 208.809326,553.082214 200.265259,558.904846
	C199.237503,559.605225 198.110519,561.208618 198.185654,562.314941
	C198.870560,572.400330 192.465256,577.098083 184.463135,580.257996
	C178.300598,582.691528 171.858749,584.417786 164.833252,586.687134
	C164.975128,579.293762 167.180115,572.732910 171.444275,566.948792
	C176.650726,559.886475 182.662003,554.136230 192.644760,555.577087
	C194.058167,555.781067 195.989014,554.362976 197.266647,553.229431
	C206.307663,545.207703 211.866180,534.902832 217.030777,524.121094
	C223.626205,510.352295 231.271484,497.089783 238.295135,483.521515
	C242.806137,474.807190 246.661057,465.740265 251.415344,457.167053
	C274.187805,416.102661 309.096954,391.809479 355.010773,383.038849
	C372.626862,379.673767 390.442139,379.470978 408.288818,380.219604
	C410.394897,380.307953 412.488251,380.699127 414.874237,380.984192
	C411.106049,388.816895 407.340027,396.032104 404.109039,403.479431
	C395.375092,423.611145 400.879333,440.925415 419.697083,452.291870
	C425.812042,455.985474 432.333893,459.011993 438.708801,462.266968
	C445.670532,465.821594 451.587494,470.544464 455.803619,477.212982
	C460.707825,484.969757 467.309296,490.660187 475.135925,495.578247
	C481.961365,499.867188 487.491028,506.171204 493.834534,511.285614
	C502.306000,518.115662 511.602997,523.094360 523.000427,522.374756
	C534.688171,521.636841 540.821350,514.083801 544.345764,504.105103
	C548.894714,491.225464 548.790100,478.007172 545.813049,464.811310
	C543.218018,476.341370 540.627930,487.849518 537.668579,499.907288
	C530.630249,510.671997 522.104126,513.777039 511.255066,508.036774
	C503.152557,503.749817 496.034393,497.558472 488.632599,492.008850
	C484.667969,489.036316 481.401154,484.974396 477.159546,482.566528
	C470.522217,478.798676 465.652649,473.594543 461.890228,467.225861
	C458.130157,460.861176 453.033997,456.090546 446.431152,452.846649
	C439.719299,449.549194 432.919830,446.409241 426.352386,442.843658
	C416.911865,437.718262 409.913940,430.493011 407.928925,419.417847
	C409.507996,413.860352 410.424561,408.002014 412.786530,402.799988
	C420.868896,384.999268 431.701202,368.850677 443.493073,353.286194
	C458.636353,333.298096 478.766510,327.378723 502.715179,331.328156
	C521.194763,334.375671 538.389221,340.629974 554.390625,351.559692
	C555.179077,351.739044 555.450500,351.664368 555.721985,351.589691
	C555.534058,351.344269 555.346130,351.098877 555.158203,350.853455
	C554.744019,349.438568 554.329895,348.023682 553.771301,346.115234
	C566.251953,342.282867 578.782715,340.458313 591.661499,341.552826
	C617.594727,343.756714 637.126099,357.191864 652.870605,376.968781
	C677.676453,408.127838 692.910278,443.811829 702.391602,482.987793
	C704.464050,495.818481 706.377319,507.910950 708.212769,520.374390
	C708.106934,521.503174 708.078918,522.260986 707.633667,523.038208
	C689.702637,520.939880 674.711426,513.187622 661.127441,502.344604
	C658.162720,499.978149 655.459351,498.571777 652.798096,503.039429
	C643.956482,505.179016 639.267090,511.454254 635.120911,518.801819
	C630.120178,521.891479 632.844421,525.048523 634.537598,528.167297
	C634.537598,528.167297 634.653442,528.638672 634.816284,529.112549
	C635.255127,530.084717 635.531128,530.583130 635.807129,531.081482
	C636.703613,533.851868 637.541748,536.642822 638.512268,539.387024
	C639.564026,542.360779 637.884583,542.340454 635.175110,541.761230
	C633.696472,541.341614 632.855408,541.149780 632.014343,540.957947
M527.291138,369.184509
	C513.947876,362.282379 499.759491,359.470184 483.521271,360.259521
	C509.389893,366.020844 532.792236,373.483398 544.519165,399.484467
	C547.656189,395.031799 548.782104,390.934875 545.946777,386.308167
	C541.490906,379.036926 535.448364,373.515106 527.291138,369.184509
M634.807861,427.614410
	C628.249390,424.356628 622.452026,425.568665 619.637329,430.786072
	C617.186096,435.329742 618.426880,441.295898 622.442627,444.275177
	C626.537476,447.313141 633.333313,446.657196 636.617981,442.906921
	C640.157349,438.865906 639.679077,432.902344 634.807861,427.614410
z"/>
    <path fill="#F6C14E" opacity="1.000000" stroke="none"
          d="
M802.756470,661.895874
	C800.983643,663.492065 799.210876,665.088257 796.939331,667.021606
	C795.616943,668.232422 794.793335,669.106140 793.969727,669.979919
	C793.969727,669.979919 794.002136,669.999268 793.639648,670.046997
	C792.847229,670.301147 792.417419,670.507568 791.987549,670.713989
	C791.569946,670.495483 791.152405,670.277039 790.222839,669.693665
	C785.484741,666.535156 781.258667,663.741516 777.032532,660.947815
	C777.032532,660.947815 776.996826,660.994995 776.894714,660.716187
	C775.864502,660.301331 774.936340,660.165222 774.008240,660.029053
	C771.202637,661.306274 768.397095,662.583496 764.929688,664.052246
	C760.613647,665.316528 756.877869,666.182068 753.348877,667.572510
	C752.086243,668.070007 751.323425,669.836121 750.332458,671.023193
	C749.262634,675.536743 748.080566,680.027771 747.165894,684.572510
	C746.632080,687.224976 745.232361,688.081177 742.654846,687.974426
	C732.715149,687.562378 722.762817,687.392029 712.836853,686.780396
	C711.424255,686.693359 709.342468,684.904602 708.928223,683.502380
	C707.619629,679.072388 707.152893,674.398254 705.935425,669.934448
	C705.514221,668.389832 704.120728,666.623413 702.698181,665.932556
	C698.834412,664.056213 694.717468,662.701111 690.133911,660.824707
	C680.871948,655.635132 680.871948,655.635132 676.033142,660.020142
	C676.033142,660.020142 676.000000,659.999268 675.696655,660.051514
	C674.612915,660.742981 673.832520,661.382202 673.052124,662.021484
	C672.143433,662.508789 671.234741,662.996094 669.854431,663.785278
	C668.580261,664.719055 667.777771,665.351013 666.975220,665.983032
	C666.975220,665.983032 667.000000,666.000000 666.607544,666.028992
	C664.543274,665.249207 662.538879,664.790161 661.257507,663.571045
	C655.745972,658.327393 650.454346,652.853088 645.068481,647.476929
	C638.777283,641.196960 638.784119,641.211975 643.454590,634.036987
	C644.069275,633.092590 644.467224,632.007202 644.965515,630.987122
	C645.323730,630.540894 645.682007,630.094666 646.388794,629.189697
	C647.558411,626.475891 649.469360,623.931885 648.964600,622.028381
	C648.028381,618.497681 645.681091,615.341248 643.921448,612.028931
	C643.589233,610.905029 643.257019,609.781067 642.798645,607.972046
	C641.547729,603.243408 641.102234,598.544617 634.984680,599.317505
	C631.911133,598.556213 628.837585,597.794922 625.130371,596.788452
	C622.976379,594.703735 621.455994,592.864197 619.935669,591.024597
	C619.992798,587.980774 620.049927,584.936951 620.269348,581.105896
	C620.547119,575.177185 620.982239,570.016541 620.674072,564.900574
	C620.439575,561.007446 622.124084,559.623413 625.532898,558.934814
	C629.397766,558.153992 633.191284,557.020142 637.015869,556.039795
	C637.460510,556.008789 637.905090,555.977844 638.986328,555.891602
	C640.094360,555.225403 640.565796,554.614380 641.037170,554.003418
	C641.345703,553.208679 641.654175,552.413940 642.202148,551.044189
	C644.027527,546.326538 645.613464,542.183960 647.631714,536.912048
	C648.886719,539.501587 649.487244,540.740662 650.087769,541.979736
	C650.264771,542.802185 650.441772,543.624634 650.765625,545.133179
	C654.434998,556.905579 657.990173,567.981567 661.469666,579.081360
	C664.102722,587.480957 665.840149,596.261108 669.350281,604.269653
	C689.815247,650.961243 753.019409,658.446106 784.156860,618.077820
	C798.115601,599.980835 800.735229,570.595581 790.005249,551.615967
	C787.357422,547.152100 784.754211,543.045105 782.071533,538.605286
	C776.647400,533.551025 771.302795,528.829651 765.776550,523.834229
	C764.052795,522.735168 762.510681,521.909973 760.813599,520.828369
	C760.105896,520.380432 759.553162,520.188965 758.769775,519.732178
	C754.022827,517.988220 749.506592,516.509583 744.709717,514.783936
	C741.613586,514.117859 738.797974,513.698730 735.525879,513.175903
	C729.720520,513.264404 724.371704,513.456665 718.764282,513.525024
	C718.006226,513.607422 717.506836,513.813599 716.643738,513.990723
	C715.567505,513.832947 714.854858,513.704163 714.182007,513.148926
	C713.708679,508.489868 713.195618,504.257355 712.747437,499.640503
	C712.195068,496.842651 711.577698,494.429230 710.979187,491.594910
	C710.837585,489.784210 710.677185,488.394348 710.685181,486.640686
	C712.164917,481.807739 713.620300,477.374176 714.737366,472.856934
	C715.488586,469.818939 716.971680,469.121887 720.082764,469.295685
	C727.708313,469.721710 735.365784,469.577301 743.010376,469.662445
	C744.490540,469.775940 745.997925,470.123718 747.445435,469.955750
	C750.811829,469.565247 752.300049,471.189056 752.780640,475.073090
	C753.604065,480.241943 754.190613,484.648071 755.146973,488.972382
	C755.416138,490.189362 756.545776,491.666565 757.664673,492.168488
	C763.044739,494.582062 768.556213,496.702667 774.021057,498.927277
	C775.302490,499.671295 776.583862,500.415283 778.350708,501.457153
	C780.579590,501.187714 782.322998,500.620453 784.066406,500.053223
	C784.066406,500.053223 783.993896,500.015839 784.375732,500.004639
	C787.868774,498.180420 790.866394,496.110962 794.138367,494.660400
	C795.822693,493.913666 797.995728,494.269073 799.947876,494.126434
	C800.004150,494.449219 800.167786,494.702820 800.798218,495.277954
	C808.352905,503.579956 815.548096,511.491211 822.939331,519.618103
	C820.551819,523.469299 818.229309,527.215515 815.906860,530.961792
	C815.274536,531.701416 814.642151,532.440979 813.648071,533.671631
	C810.797852,536.725342 812.258179,538.877869 813.996338,541.001526
	C814.167786,541.551270 814.339233,542.101074 814.757324,543.178955
	C815.591858,544.658203 816.179626,545.609436 816.767395,546.560608
	C816.767395,546.560608 816.609192,546.791504 816.699707,547.318848
	C817.719727,551.479492 818.527161,555.151062 819.648926,558.723999
	C820.013855,559.886169 821.200012,560.790527 822.010559,561.812866
	C823.749268,562.222778 825.488037,562.632690 827.882690,563.274780
	C832.336426,564.374817 836.134155,565.242554 839.931946,566.110229
	C839.931946,566.110229 839.979370,566.026489 839.991943,566.506836
	C840.059204,572.993347 840.113831,578.999451 840.168457,585.005615
	C840.084778,586.399292 840.001099,587.792908 839.737610,589.923340
	C839.401306,594.453369 839.244934,598.246582 839.088501,602.039795
	C839.088501,602.039795 839.013550,602.019531 838.643677,602.119141
	C834.518250,603.153687 830.762756,604.088684 827.007263,605.023682
	C826.557922,605.034607 826.108582,605.045593 824.950928,605.089722
	C822.246765,606.087952 820.250793,607.052917 818.254883,608.017822
	C816.346619,612.660767 814.438293,617.303711 812.165649,622.472534
	C810.827454,625.580750 808.767761,628.348633 809.168701,630.696228
	C809.618347,633.328491 812.293640,635.580688 814.000488,637.998291
	C814.855286,639.524597 815.710083,641.050903 816.847290,643.123108
	C817.442322,644.787659 817.754944,645.906372 818.067505,647.025024
	C817.143799,647.858276 816.220032,648.691467 814.855347,649.922424
	C810.528442,654.178711 806.642456,658.037292 802.756470,661.895874
z"/>
    <path fill="#3594C6" opacity="1.000000" stroke="none"
          d="
M659.643555,551.833618
	C658.862793,548.707764 657.939636,545.605774 657.409912,542.437927
	C657.290344,541.722717 658.540955,540.778320 659.860291,540.190674
	C664.703796,541.969482 668.847778,543.497192 673.274292,545.260376
	C675.008423,545.760864 676.460022,546.025818 678.231934,546.497620
	C689.136719,547.551697 699.721313,548.398987 710.370728,549.677490
	C712.270874,558.414612 714.106079,566.720459 715.958618,575.392090
	C718.567444,579.871277 721.158875,583.984619 723.902649,588.407227
	C727.371033,590.737427 730.687073,592.758423 734.366394,594.931030
	C738.169495,594.765015 741.609314,594.447327 745.401184,594.090454
	C751.399170,591.059143 754.912903,586.701599 754.842163,579.666138
	C754.874634,578.894836 754.820435,578.450623 754.838806,577.631470
	C753.938416,570.602234 750.191040,566.161194 744.119995,563.447754
	C742.171326,562.576721 740.234314,561.521729 738.570740,560.200073
	C733.432190,556.117554 734.042480,551.754333 740.349243,549.049988
	C741.799561,548.756836 742.900696,548.414795 744.385986,548.081665
	C749.142761,547.439392 750.921326,544.821960 750.773865,540.508118
	C750.712708,538.720581 751.126404,536.916809 751.609741,534.936829
	C755.351074,530.970337 758.716064,531.524109 762.152710,534.848816
	C763.687988,536.334045 765.432495,537.602966 767.215088,539.271973
	C771.200928,543.794739 775.053589,548.015747 778.961426,552.524292
	C779.606934,553.565186 780.197266,554.318359 780.870056,555.425903
	C792.690247,578.042053 790.428650,601.259827 774.906616,617.847717
	C758.252380,635.645569 732.177795,639.840332 709.291260,628.186646
	C691.375183,619.063843 679.787109,604.002930 671.970215,586.062927
	C667.136414,574.969055 663.704712,563.264221 659.643555,551.833618
z"/>
    <path fill="#3493C5" opacity="1.000000" stroke="none"
          d="
M622.528625,678.525452
	C606.781311,679.299438 591.032166,680.669250 575.287292,680.622375
	C565.953064,680.594543 562.762146,675.984436 563.053345,666.706604
	C563.251587,660.390137 563.820557,654.084534 563.978821,647.767883
	C564.254822,636.751404 559.905640,627.697021 551.720032,620.466858
	C547.731567,616.943909 543.458496,613.737122 539.560059,610.122192
	C538.494934,609.134460 537.562500,607.020142 537.852112,605.705444
	C541.152832,590.721497 545.102295,575.847534 553.291687,562.712524
	C557.996521,555.166382 563.986206,548.421387 569.498291,541.183411
	C579.585876,555.867737 589.041138,569.631714 598.668762,584.137817
	C599.556152,591.922119 600.271179,598.964172 600.987183,606.345642
	C601.076599,607.127991 601.165100,607.570862 601.191467,608.336609
	C601.402832,609.459656 601.676453,610.259888 601.969727,611.457397
	C603.472168,616.603088 604.954834,621.351501 606.524170,626.421143
	C606.787415,627.147888 606.963867,627.553406 607.162231,628.284302
	C607.917969,630.107239 608.651794,631.604797 609.488220,633.439453
	C610.335571,635.202515 611.080322,636.628479 611.853760,638.359131
	C612.223572,639.142700 612.564880,639.621582 612.939148,640.061584
	C612.972168,640.022644 612.874512,640.052368 612.888184,640.362793
	C613.244812,641.166626 613.587891,641.659973 614.001648,642.493408
	C616.897339,647.565491 619.722351,652.297607 622.660461,657.351685
	C623.175049,658.133118 623.576538,658.592468 623.984497,659.025024
	C623.991028,658.998169 623.936829,659.008606 623.936829,659.008606
	C625.045959,663.942078 626.155029,668.875488 627.276855,674.511597
	C626.068115,674.644348 624.407593,674.404785 623.692383,673.454102
	C615.884583,663.075806 608.224609,652.586243 600.485840,641.808105
	C599.574585,640.082458 598.701965,638.675720 597.729309,636.964111
	C597.492126,636.494934 597.354919,636.330750 597.246582,635.832397
	C594.639343,629.397644 592.003296,623.296997 589.367249,617.196411
	C588.743286,617.473938 588.119385,617.751465 587.495483,618.028992
	C590.861084,626.024963 594.226685,634.020996 597.694641,642.356201
	C597.985840,643.127808 598.174683,643.560120 598.360474,644.212036
	C598.478455,644.722351 598.688782,644.916382 599.088440,645.351868
	C605.724976,654.937683 612.256958,664.188477 618.801697,673.430298
	C620.017700,675.147339 621.285034,676.828003 622.528625,678.525452
z"/>
    <path fill="#3693C6" opacity="1.000000" stroke="none"
          d="
M366.012390,693.729126
	C362.685577,693.730957 359.855835,693.753784 357.026459,693.729736
	C349.120636,693.662415 347.137787,691.770691 346.647675,683.722168
	C346.202850,676.418457 346.044617,669.090210 345.367340,661.809326
	C344.213470,649.405212 340.603424,637.710449 334.383606,626.863464
	C333.915314,626.046814 333.622284,625.129639 333.142365,624.014160
	C355.190918,624.014160 376.833527,624.014160 398.624359,624.014160
	C402.062500,646.478394 405.633087,669.807800 409.294189,693.728760
	C395.032959,693.728760 380.771271,693.728760 366.012390,693.729126
z"/>
    <path fill="#F9FAF2" opacity="1.000000" stroke="none"
          d="
M659.263062,551.947632
	C663.704712,563.264221 667.136414,574.969055 671.970215,586.062927
	C679.787109,604.002930 691.375183,619.063843 709.291260,628.186646
	C732.177795,639.840332 758.252380,635.645569 774.906616,617.847717
	C790.428650,601.259827 792.690247,578.042053 781.237793,555.431763
	C788.892517,559.423035 788.892517,559.423035 790.049866,551.972900
	C800.735229,570.595581 798.115601,599.980835 784.156860,618.077820
	C753.019409,658.446106 689.815247,650.961243 669.350281,604.269653
	C665.840149,596.261108 664.102722,587.480957 661.469666,579.081360
	C657.990173,567.981567 654.434998,556.905579 650.925781,545.411011
	C654.059875,544.777405 654.793030,546.843811 654.971985,549.316406
	C655.159302,551.903015 655.877686,553.566406 659.263062,551.947632
z"/>
    <path fill="#F5C251" opacity="1.000000" stroke="none"
          d="
M635.364563,518.591614
	C639.267090,511.454254 643.956482,505.179016 653.004578,503.274445
	C655.017761,504.778168 656.439697,506.039398 658.041748,507.570496
	C660.782043,509.638397 663.342346,511.436371 666.100952,513.504822
	C669.131348,515.341003 671.963501,516.906677 675.022583,518.711609
	C681.837708,521.578003 688.425781,524.205139 695.377930,526.978516
	C698.824097,527.678589 701.906189,528.232361 705.409912,528.890015
	C711.564026,529.018494 717.296570,529.043030 723.464844,529.107056
	C725.926514,528.984070 727.952576,528.821655 730.374634,528.734009
	C734.776062,528.132935 738.781372,527.456970 742.862305,526.857056
	C742.937866,526.933105 743.092590,527.081482 742.966431,527.397949
	C738.228088,530.812866 733.615967,533.911194 728.645386,537.047852
	C725.860229,538.088806 723.433472,539.091431 720.628418,540.064697
	C718.149292,540.651245 716.048523,541.267151 713.618530,541.870850
	C712.862732,541.956665 712.436218,542.054626 711.632568,542.096924
	C709.822937,542.329224 708.390320,542.617249 706.494507,542.873718
	C697.693848,542.208313 689.356445,541.574585 680.739258,540.701782
	C671.666931,537.243774 662.874573,534.024841 654.082153,530.805969
	C651.944092,529.582825 649.806091,528.359619 647.167725,526.831604
	C645.770569,526.082031 644.873718,525.637268 643.976929,525.192505
	C643.540405,524.834961 643.103882,524.477356 642.214478,523.743408
	C639.629211,521.775269 637.496887,520.183411 635.364563,518.591614
z"/>
    <path fill="#FDFAEF" opacity="1.000000" stroke="none"
          d="
M790.987671,463.068573
	C793.406128,463.317383 796.107544,462.956573 798.192139,463.924408
	C805.721313,467.420013 813.042847,471.362640 821.167664,474.770569
	C819.224731,472.705780 817.536133,470.293915 815.287598,468.646118
	C810.091064,464.838013 804.580200,461.461517 799.296997,457.766663
	C798.055969,456.898712 797.212280,455.462585 796.572632,454.038818
	C803.269165,457.582367 809.578918,461.374939 816.045410,465.463196
	C835.264893,480.941223 850.109497,499.482788 860.057434,521.924072
	C860.487366,521.711914 860.917358,521.499756 861.347290,521.287598
	C859.830566,516.550049 858.313843,511.812561 856.797180,507.075043
	C858.204834,508.893616 860.201233,510.507629 860.916626,512.566711
	C863.789307,520.835327 866.265503,529.241699 868.888184,537.597168
	C868.193359,538.098083 867.498596,538.598938 866.803772,539.099854
	C863.507874,536.478821 860.211975,533.857727 857.016541,531.316589
	C856.504211,534.110962 855.989624,536.917725 854.897095,539.601196
	C849.168213,520.000916 839.490723,503.072662 825.818909,488.315430
	C815.864563,477.570923 803.648621,470.033661 790.987671,463.068573
z"/>
    <path fill="#F0C15D" opacity="1.000000" stroke="none"
          d="
M790.663574,463.036133
	C803.648621,470.033661 815.864563,477.570923 825.818909,488.315430
	C839.490723,503.072662 849.168213,520.000916 854.544922,539.756287
	C854.865662,540.778137 854.960754,541.521545 855.116089,542.903259
	C855.404236,544.044617 855.632202,544.547729 855.860168,545.050781
	C855.937378,545.789307 856.014526,546.527893 856.162476,548.025146
	C856.859497,555.524475 857.485779,562.265137 858.112000,569.005737
	C858.015564,570.035583 857.919128,571.065430 857.627808,572.181152
	C856.320007,566.832092 855.207153,561.397278 854.094299,555.962402
	C854.063660,555.523193 854.033020,555.083923 853.945190,554.045166
	C853.656372,552.940063 853.424805,552.434631 853.193237,551.929199
	C853.151550,551.496216 853.109924,551.063171 852.996338,550.030640
	C852.665039,548.935852 852.405701,548.440552 852.146362,547.945312
	C850.328796,542.782349 848.511169,537.619385 846.395325,531.831787
	C844.810974,528.772217 843.524902,526.337158 842.238770,523.902161
	C841.022339,521.400391 839.805969,518.898560 838.225098,515.854919
	C834.134644,510.020203 830.830017,504.359131 826.594238,499.511719
	C817.973267,489.645844 809.132751,479.892792 797.150024,473.820496
	C797.150024,473.820496 797.084351,473.814514 796.946289,473.539612
	C790.222046,469.805511 783.635864,466.346313 777.049744,462.887115
	C776.283875,462.526184 775.517944,462.165222 774.170410,461.528503
	C767.053467,459.264404 760.518188,457.276062 753.982910,455.287720
	C753.556091,455.168182 753.129272,455.048645 752.184204,454.693573
	C751.104065,454.396912 750.542114,454.335724 749.980225,454.274536
	C749.436401,454.048126 748.892639,453.821747 748.680176,453.321625
	C751.676880,452.994446 754.342285,452.941010 757.007690,452.887573
	C757.738220,452.988068 758.468750,453.088593 759.856934,453.415649
	C768.312134,455.835480 776.109802,458.028809 783.907410,460.222107
	C784.406372,460.484802 784.905334,460.747498 785.868347,461.262756
	C786.892090,461.637726 787.451782,461.760071 788.011475,461.882416
	C788.787476,462.256165 789.563538,462.629913 790.663574,463.036133
z"/>
    <path fill="#E7C468" opacity="1.000000" stroke="none"
          d="
M407.727570,419.671814
	C409.913940,430.493011 416.911865,437.718262 426.352386,442.843658
	C432.919830,446.409241 439.719299,449.549194 446.431152,452.846649
	C453.033997,456.090546 458.130157,460.861176 461.890228,467.225861
	C465.652649,473.594543 470.522217,478.798676 477.159546,482.566528
	C481.401154,484.974396 484.667969,489.036316 488.632599,492.008850
	C496.034393,497.558472 503.152557,503.749817 511.255066,508.036774
	C522.104126,513.777039 530.630249,510.671997 537.552795,500.277740
	C534.541443,516.692749 521.043640,518.730530 509.400574,513.246033
	C500.610931,509.105621 493.537781,503.017273 486.557892,496.606567
	C486.067932,496.156616 485.662170,495.594299 485.121979,495.222717
	C473.296295,487.088837 463.237793,477.394440 454.593506,465.715759
	C450.567719,460.276794 442.903137,457.204132 436.426941,453.986877
	C427.879608,449.740723 419.490906,445.603210 413.332855,437.932220
	C409.047119,432.593506 407.219971,426.650757 407.727570,419.671814
z"/>
    <path fill="#F0C15D" opacity="1.000000" stroke="none"
          d="
M622.547302,657.029724
	C619.722351,652.297607 616.897339,647.565491 614.011475,642.169556
	C613.591919,641.021240 613.233215,640.536804 612.874512,640.052368
	C612.874512,640.052368 612.972168,640.022644 612.954468,639.739563
	C612.566223,638.989136 612.195679,638.521790 611.825134,638.054443
	C611.080322,636.628479 610.335571,635.202515 609.907288,633.438354
	C612.053406,633.406616 613.883057,633.713074 615.886230,634.261658
	C616.661743,635.261719 617.263672,636.019592 617.865662,636.777466
	C625.433289,651.114441 636.060852,662.863037 648.564270,673.014893
	C667.564392,688.441467 689.227478,697.994446 713.264099,702.308716
	C713.836731,702.411377 714.364929,702.762146 714.913818,702.997253
	C714.825928,703.469360 714.738037,703.941467 714.650146,704.413574
	C706.764038,703.224670 698.690796,702.743591 691.025879,700.717712
	C665.160095,693.881287 642.683044,681.320129 625.768372,659.993286
	C625.465759,659.611694 625.020325,659.343323 624.289185,659.015381
	C623.936829,659.008606 623.991028,658.998169 624.048584,658.665283
	C623.586548,657.898254 623.066895,657.463989 622.547302,657.029724
z"/>
    <path fill="#DFC172" opacity="1.000000" stroke="none"
          d="
M600.524414,642.127014
	C608.224609,652.586243 615.884583,663.075806 623.692383,673.454102
	C624.407593,674.404785 626.068115,674.644348 627.421875,674.941040
	C630.781799,678.347961 633.749329,682.306763 637.310852,685.628784
	C640.816895,688.898987 644.867432,691.605713 648.808899,694.374817
	C649.826538,695.089722 651.331726,695.110779 652.613037,695.450500
	C651.886475,696.215759 651.159912,696.980957 650.433289,697.746155
	C641.515808,693.456360 633.468262,687.862732 626.199158,681.086182
	C625.258911,680.209656 624.166443,679.496338 622.836548,678.616455
	C621.285034,676.828003 620.017700,675.147339 618.801697,673.430298
	C612.256958,664.188477 605.724976,654.937683 599.052734,645.144775
	C598.810120,644.326416 598.625671,644.124023 598.363586,643.992432
	C598.174683,643.560120 597.985840,643.127808 598.066650,642.352600
	C599.065613,642.048828 599.795044,642.087952 600.524414,642.127014
z"/>
    <path fill="#418DB7" opacity="1.000000" stroke="none"
          d="
M522.140625,680.518982
	C521.608398,661.777527 521.306030,643.280151 521.011597,624.782532
	C520.984497,623.080505 521.007996,621.377625 521.861816,619.695801
	C522.983765,622.100342 524.105774,624.504944 525.609924,626.967773
	C525.681702,630.667542 525.496338,634.324707 525.039124,637.947693
	C523.121094,653.147156 523.412598,668.136047 528.365784,682.855286
	C529.453369,686.087158 529.504761,689.667725 530.081238,693.398010
	C527.241028,688.742676 524.806885,684.752808 522.140625,680.518982
z"/>
    <path fill="#E7C468" opacity="1.000000" stroke="none"
          d="
M856.562500,506.844940
	C858.313843,511.812561 859.830566,516.550049 861.347290,521.287598
	C860.917358,521.499756 860.487366,521.711914 860.057434,521.924072
	C850.109497,499.482788 835.264893,480.941223 816.204102,465.187683
	C816.544128,464.370972 816.882202,464.125458 817.547180,463.955902
	C822.202576,467.124146 826.531128,470.216461 830.859680,473.308777
	C834.287659,476.800171 837.715698,480.291565 841.526489,484.269806
	C842.923096,485.872528 843.936829,486.988342 844.950562,488.104156
	C845.751465,489.308594 846.552429,490.513000 847.677551,492.196503
	C848.647949,493.473724 849.294128,494.271820 849.940369,495.069916
	C849.940369,495.069916 849.976379,494.990509 849.996704,495.335327
	C850.645264,496.487213 851.273560,497.294250 851.901794,498.101318
	C851.901794,498.101318 851.890564,498.004059 851.905334,498.340118
	C852.250488,499.129364 852.580872,499.582550 852.911255,500.035736
	C854.050171,502.228760 855.189026,504.421783 856.562500,506.844940
z"/>
    <path fill="#FBFDFC" opacity="1.000000" stroke="none"
          d="
M710.516724,487.004486
	C710.677185,488.394348 710.837585,489.784210 710.714111,491.828857
	C710.291443,495.263062 706.814819,499.039337 712.682495,500.024872
	C713.195618,504.257355 713.708679,508.489868 714.121826,513.541016
	C713.055786,517.199829 712.106506,520.057190 708.290588,520.003418
	C706.377319,507.910950 704.464050,495.818481 702.597534,483.347107
	C704.537231,482.013153 706.430298,481.058075 708.661682,480.465515
	C709.505615,482.886841 710.011169,484.945648 710.516724,487.004486
z"/>
    <path fill="#418DB7" opacity="1.000000" stroke="none"
          d="
M617.873047,636.376343
	C617.263672,636.019592 616.661743,635.261719 615.824402,633.926270
	C614.642639,631.426758 613.517761,629.570679 612.780457,627.571533
	C609.411133,618.435547 606.150696,609.259399 602.885132,599.695557
	C602.587646,595.830872 602.256042,592.368347 601.924438,588.905884
	C612.304077,602.880066 615.035400,619.446899 617.873047,636.376343
z"/>
    <path fill="#F9FAF2" opacity="1.000000" stroke="none"
          d="
M797.129333,474.183289
	C809.132751,479.892792 817.973267,489.645844 826.594238,499.511719
	C830.830017,504.359131 834.134644,510.020203 837.961060,515.642700
	C832.010498,515.327148 828.415466,511.353485 825.021729,506.795105
	C820.657593,500.933380 816.096802,495.197723 811.311584,489.675659
	C806.785156,484.452301 801.858948,479.575378 797.129333,474.183289
z"/>
    <path fill="#F9FAF2" opacity="1.000000" stroke="none"
          d="
M644.621094,631.025757
	C644.467224,632.007202 644.069275,633.092590 643.454590,634.036987
	C638.784119,641.211975 638.777283,641.196960 645.068481,647.476929
	C650.454346,652.853088 655.745972,658.327393 661.257507,663.571045
	C662.538879,664.790161 664.543274,665.249207 666.600342,666.015869
	C664.658691,669.877197 661.806641,668.238281 659.151611,666.553955
	C657.636475,665.592651 656.372253,664.214600 655.063538,662.953064
	C649.203491,657.304199 643.250183,651.742310 637.631592,645.861450
	C636.610840,644.793030 636.167847,641.884033 636.888733,640.684692
	C638.958313,637.241699 641.761658,634.239746 644.621094,631.025757
z"/>
    <path fill="#F9FAF2" opacity="1.000000" stroke="none"
          d="
M816.262573,530.945496
	C818.229309,527.215515 820.551819,523.469299 822.939331,519.618103
	C815.548096,511.491211 808.352905,503.579956 801.013428,495.362732
	C802.303345,495.294739 804.275391,495.013916 805.085632,495.853851
	C810.943970,501.927338 817.526855,507.616089 821.994263,514.628235
	C826.414185,521.565918 824.060425,526.221558 816.262573,530.945496
z"/>
    <path fill="#F9FAF2" opacity="1.000000" stroke="none"
          d="
M654.060303,531.202759
	C662.874573,534.024841 671.666931,537.243774 680.709778,541.028320
	C680.306763,542.395935 679.653381,543.197937 678.619751,543.998901
	C676.490295,544.340149 674.741028,544.682495 672.991821,545.024841
	C668.847778,543.497192 664.703796,541.969482 660.279907,540.221191
	C658.895630,538.347839 657.820679,536.674500 656.676941,535.049500
	C655.844421,533.866394 654.921204,532.747192 654.060303,531.202759
z"/>
    <path fill="#F9FAF2" opacity="1.000000" stroke="none"
          d="
M710.685181,486.640686
	C710.011169,484.945648 709.505615,482.886841 709.000061,480.414612
	C710.176636,476.983917 710.879456,473.633575 712.688232,471.060760
	C714.000000,469.194977 716.752136,467.305573 718.904663,467.255341
	C726.291199,467.083038 733.697327,467.697968 741.092712,468.077637
	C741.659668,468.106750 742.200623,468.642059 742.882019,469.302277
	C735.365784,469.577301 727.708313,469.721710 720.082764,469.295685
	C716.971680,469.121887 715.488586,469.818939 714.737366,472.856934
	C713.620300,477.374176 712.164917,481.807739 710.685181,486.640686
z"/>
    <path fill="#F9FAF2" opacity="1.000000" stroke="none"
          d="
M773.960693,498.587830
	C768.556213,496.702667 763.044739,494.582062 757.664673,492.168488
	C756.545776,491.666565 755.416138,490.189362 755.146973,488.972382
	C754.190613,484.648071 753.604065,480.241943 752.900146,475.436218
	C754.611267,478.525543 757.069580,481.899658 757.771423,485.606323
	C758.471375,489.303253 759.027283,491.319489 763.302185,492.303986
	C767.090332,493.176361 770.386841,496.183624 773.960693,498.587830
z"/>
    <path fill="#F9FAF2" opacity="1.000000" stroke="none"
          d="
M636.760010,555.749023
	C633.191284,557.020142 629.397766,558.153992 625.532898,558.934814
	C622.124084,559.623413 620.439575,561.007446 620.674072,564.900574
	C620.982239,570.016541 620.547119,575.177185 620.203064,580.654053
	C619.724121,573.966797 619.395081,566.944824 619.327332,559.920471
	C619.319275,559.085022 620.635925,557.640991 621.511353,557.491516
	C626.479858,556.643250 631.500916,556.103149 636.760010,555.749023
z"/>
    <path fill="#F9FAF2" opacity="1.000000" stroke="none"
          d="
M650.404297,541.795349
	C649.487244,540.740662 648.886719,539.501587 647.631714,536.912048
	C645.613464,542.183960 644.027527,546.326538 642.187927,550.721802
	C639.219543,545.471558 642.842041,540.931274 644.583496,536.276062
	C645.013733,535.126221 648.397400,535.081299 650.423462,534.528442
	C650.522583,536.889343 650.621765,539.250122 650.404297,541.795349
z"/>
    <path fill="#F9FAF2" opacity="1.000000" stroke="none"
          d="
M643.673096,612.285645
	C645.681091,615.341248 648.028381,618.497681 648.964600,622.028381
	C649.469360,623.931885 647.558411,626.475891 646.447571,628.900269
	C645.439331,626.309753 644.525330,623.582520 644.058472,620.780823
	C643.607422,618.074646 643.617371,615.291687 643.673096,612.285645
z"/>
    <path fill="#BAB888" opacity="1.000000" stroke="none"
          d="
M601.824951,588.599365
	C602.256042,592.368347 602.587646,595.830872 602.627808,599.941772
	C601.886230,602.395569 601.436157,604.200867 600.986206,606.006226
	C600.271179,598.964172 599.556152,591.922119 598.857300,584.403564
	C599.824219,585.382324 600.774841,586.837524 601.824951,588.599365
z"/>
    <path fill="#F9FAF2" opacity="1.000000" stroke="none"
          d="
M813.997375,637.590210
	C812.293640,635.580688 809.618347,633.328491 809.168701,630.696228
	C808.767761,628.348633 810.827454,625.580750 812.061157,622.832092
	C812.853027,624.599915 813.660645,626.507324 813.851501,628.474487
	C814.130920,631.354553 813.968445,634.277405 813.997375,637.590210
z"/>
    <path fill="#F9FAF2" opacity="1.000000" stroke="none"
          d="
M635.120911,518.801819
	C637.496887,520.183411 639.629211,521.775269 641.945374,523.655273
	C639.834717,525.258301 637.540161,526.573059 634.891602,528.027588
	C632.844421,525.048523 630.120178,521.891479 635.120911,518.801819
z"/>
    <path fill="#FDFAEF" opacity="1.000000" stroke="none"
          d="
M783.886230,459.842743
	C776.109802,458.028809 768.312134,455.835480 760.226685,453.396973
	C762.714111,453.167938 765.686768,452.546692 768.223572,453.332458
	C773.558533,454.984833 778.664856,457.375641 783.886230,459.842743
z"/>
    <path fill="#DFC172" opacity="1.000000" stroke="none"
          d="
M817.220337,463.879944
	C816.882202,464.125458 816.544128,464.370972 816.047363,464.892029
	C809.578918,461.374939 803.269165,457.582367 796.631348,453.667664
	C796.303223,453.545532 796.290161,453.350616 796.605469,453.243988
	C801.215454,454.825317 805.510132,456.513306 809.804749,458.201294
	C809.804749,458.201294 809.824463,458.161835 809.996216,458.463257
	C811.721558,459.572449 813.275208,460.380188 814.828857,461.187958
	C814.828857,461.187958 814.828735,461.146149 814.967896,461.430634
	C815.811462,462.436737 816.515930,463.158356 817.220337,463.879944
z"/>
    <path fill="#FDFAEF" opacity="1.000000" stroke="none"
          d="
M853.793457,556.209229
	C855.207153,561.397278 856.320007,566.832092 857.642517,572.569458
	C858.057617,573.410645 858.263123,573.949219 858.468628,574.487854
	C857.592590,574.375854 856.191895,574.560608 855.931458,574.100342
	C854.817688,572.131470 853.462524,570.024536 853.267883,567.871094
	C852.927429,564.103638 853.375183,560.264893 853.793457,556.209229
z"/>
    <path fill="#F9FAF2" opacity="1.000000" stroke="none"
          d="
M754.064087,455.611877
	C760.518188,457.276062 767.053467,459.264404 773.845947,461.487671
	C771.382935,461.530060 768.500610,461.841370 765.979370,461.030212
	C761.909607,459.720856 758.077698,457.672333 754.064087,455.611877
z"/>
    <path fill="#F9FAF2" opacity="1.000000" stroke="none"
          d="
M777.066650,463.247864
	C783.635864,466.346313 790.222046,469.805511 796.971008,473.561340
	C789.957092,471.406616 782.440674,469.619781 777.066650,463.247864
z"/>
    <path fill="#FDFAEF" opacity="1.000000" stroke="none"
          d="
M858.496460,568.903564
	C857.485779,562.265137 856.859497,555.524475 856.278320,548.378784
	C857.308533,549.806091 859.031982,551.597595 859.136536,553.479004
	C859.419189,558.565979 859.013550,563.691345 858.496460,568.903564
z"/>
    <path fill="#F9FAF2" opacity="1.000000" stroke="none"
          d="
M777.022827,661.318909
	C781.258667,663.741516 785.484741,666.535156 789.876709,669.616821
	C784.015930,670.874695 779.279602,667.888489 777.022827,661.318909
z"/>
    <path fill="#F9FAF2" opacity="1.000000" stroke="none"
          d="
M799.957275,493.727051
	C797.995728,494.269073 795.822693,493.913666 794.138367,494.660400
	C790.866394,496.110962 787.868774,498.180420 784.403320,500.034790
	C786.505615,494.718781 791.525879,492.836365 796.567566,491.221008
	C797.391052,490.957184 798.818420,492.577972 799.957275,493.727051
z"/>
    <path fill="#FDFAEF" opacity="1.000000" stroke="none"
          d="
M756.908020,452.505890
	C754.342285,452.941010 751.676880,452.994446 748.572205,453.046082
	C747.663452,453.036285 747.193970,453.028290 746.031250,453.017242
	C744.883301,453.031403 744.428650,453.048615 743.973999,453.065857
	C742.214417,453.065857 740.454834,453.065857 738.221130,453.065857
	C740.892944,449.712830 750.813171,449.526672 756.908020,452.505890
z"/>
    <path fill="#FDFAEF" opacity="1.000000" stroke="none"
          d="
M817.547180,463.955933
	C816.515930,463.158356 815.811462,462.436737 814.986572,461.439880
	C816.656738,461.692657 818.819641,461.756561 820.166809,462.837311
	C823.925476,465.852661 827.346069,469.289459 830.879883,472.934326
	C826.531128,470.216461 822.202576,467.124146 817.547180,463.955933
z"/>
    <path fill="#F9FAF2" opacity="1.000000" stroke="none"
          d="
M840.547852,584.897949
	C840.113831,578.999451 840.059204,572.993347 839.948242,566.526978
	C840.464417,566.330933 841.541199,566.606323 841.535645,566.857727
	C841.403320,572.836853 841.154724,578.813354 840.547852,584.897949
z"/>
    <path fill="#F9FAF2" opacity="1.000000" stroke="none"
          d="
M803.141663,661.926575
	C806.642456,658.037292 810.528442,654.178711 814.725464,650.206970
	C814.169312,656.929077 808.703735,659.303101 803.141663,661.926575
z"/>
    <path fill="#F9FAF2" opacity="1.000000" stroke="none"
          d="
M676.407959,660.013550
	C680.871948,655.635132 680.871948,655.635132 689.772705,660.781860
	C688.207275,660.985352 686.430603,660.981873 684.666199,660.833252
	C682.033875,660.611511 679.410095,660.287476 676.407959,660.013550
z"/>
    <path fill="#F9FAF2" opacity="1.000000" stroke="none"
          d="
M750.652222,670.965698
	C751.323425,669.836121 752.086243,668.070007 753.348877,667.572510
	C756.877869,666.182068 760.613647,665.316528 764.640808,664.259399
	C761.470764,665.946838 757.927368,667.618164 754.384644,669.290833
	C753.246277,669.828247 752.109497,670.368958 750.652222,670.965698
z"/>
    <path fill="#F9FAF2" opacity="1.000000" stroke="none"
          d="
M821.949585,561.421875
	C821.200012,560.790527 820.013855,559.886169 819.648926,558.723999
	C818.527161,555.151062 817.719727,551.479492 816.765503,547.442383
	C818.159302,549.469788 819.889526,551.779846 820.896606,554.371094
	C821.689575,556.411255 821.591125,558.798035 821.949585,561.421875
z"/>
    <path fill="#FDFAEF" opacity="1.000000" stroke="none"
          d="
M809.839355,457.830566
	C805.510132,456.513306 801.215454,454.825317 796.552734,453.161835
	C796.184631,453.186310 796.009827,453.005951 795.924072,452.777039
	C795.838379,452.548157 795.894531,452.298767 795.894531,452.298767
	C799.766663,450.431519 806.645996,452.971313 809.839355,457.830566
z"/>
    <path fill="#F9FAF2" opacity="1.000000" stroke="none"
          d="
M619.649902,591.254700
	C621.455994,592.864197 622.976379,594.703735 624.734619,596.805542
	C622.844299,597.172668 620.716187,597.277527 618.588013,597.382324
	C618.846802,595.416504 619.105530,593.450684 619.649902,591.254700
z"/>
    <path fill="#F9FAF2" opacity="1.000000" stroke="none"
          d="
M827.284241,605.308044
	C830.762756,604.088684 834.518250,603.153687 838.658936,602.154785
	C836.471436,607.373718 831.842712,605.913574 827.284241,605.308044
z"/>
    <path fill="#F9FAF2" opacity="1.000000" stroke="none"
          d="
M839.471802,601.934570
	C839.244934,598.246582 839.401306,594.453369 839.800171,590.338989
	C839.980042,593.955017 839.917480,597.892212 839.471802,601.934570
z"/>
    <path fill="#F9FAF2" opacity="1.000000" stroke="none"
          d="
M839.894287,565.730347
	C836.134155,565.242554 832.336426,564.374817 828.269775,563.255127
	C831.952759,563.785645 835.904663,564.567993 839.894287,565.730347
z"/>
    <path fill="#F9FAF2" opacity="1.000000" stroke="none"
          d="
M635.081848,599.646301
	C641.102234,598.544617 641.547729,603.243408 642.639038,607.654114
	C641.939148,607.391541 640.754150,606.807739 640.693420,606.124084
	C640.380493,602.604126 638.172119,600.983582 635.081848,599.646301
z"/>
    <path fill="#F9FAF2" opacity="1.000000" stroke="none"
          d="
M841.930664,524.114380
	C843.524902,526.337158 844.810974,528.772217 846.156616,531.557617
	C842.071106,530.964661 840.552246,528.430054 841.930664,524.114380
z"/>
    <path fill="#F9FAF2" opacity="1.000000" stroke="none"
          d="
M814.270752,540.765015
	C812.258179,538.877869 810.797852,536.725342 813.591736,533.964478
	C814.113220,536.020325 814.329224,538.274475 814.270752,540.765015
z"/>
    <path fill="#F9FAF2" opacity="1.000000" stroke="none"
          d="
M818.610352,607.958374
	C820.250793,607.052917 822.246765,606.087952 824.627808,605.191895
	C822.997314,606.140198 820.981628,607.019531 818.610352,607.958374
z"/>
    <path fill="#F9FAF2" opacity="1.000000" stroke="none"
          d="
M818.407959,647.014648
	C817.754944,645.906372 817.442322,644.787659 817.109497,643.318970
	C818.268066,643.937744 819.447021,644.906494 820.625916,645.875183
	C820.000061,646.251526 819.374207,646.627930 818.407959,647.014648
z"/>
    <path fill="#F9FAF2" opacity="1.000000" stroke="none"
          d="
M783.663940,500.035767
	C782.322998,500.620453 780.579590,501.187714 778.677612,501.479614
	C780.099792,500.808929 781.680664,500.413635 783.663940,500.035767
z"/>
    <path fill="#FDFAEF" opacity="1.000000" stroke="none"
          d="
M814.841553,460.816956
	C813.275208,460.380188 811.721558,459.572449 810.016907,458.470856
	C811.528687,458.933319 813.191406,459.689606 814.841553,460.816956
z"/>
    <path fill="#FDFAEF" opacity="1.000000" stroke="none"
          d="
M844.964844,487.719971
	C843.936829,486.988342 842.923096,485.872528 841.798218,484.448090
	C842.784424,485.204926 843.881714,486.270355 844.964844,487.719971
z"/>
    <path fill="#F9FAF2" opacity="1.000000" stroke="none"
          d="
M643.988159,525.528320
	C644.873718,525.637268 645.770569,526.082031 646.826111,526.785645
	C645.989746,526.651062 644.994568,526.257629 643.988159,525.528320
z"/>
    <path fill="#F9FAF2" opacity="1.000000" stroke="none"
          d="
M794.334290,669.984070
	C794.793335,669.106140 795.616943,668.232422 796.731323,667.278076
	C796.247681,668.127686 795.473267,669.057922 794.334290,669.984070
z"/>
    <path fill="#F9FAF2" opacity="1.000000" stroke="none"
          d="
M816.830566,546.158081
	C816.179626,545.609436 815.591858,544.658203 814.989136,543.358215
	C815.613953,543.924805 816.253784,544.840210 816.830566,546.158081
z"/>
    <path fill="#F9FAF2" opacity="1.000000" stroke="none"
          d="
M632.052734,541.286316
	C632.855408,541.149780 633.696472,541.341614 634.772217,541.759216
	C634.034973,541.861633 633.063049,541.738159 632.052734,541.286316
z"/>
    <path fill="#F9FAF2" opacity="1.000000" stroke="none"
          d="
M667.330017,665.990234
	C667.777771,665.351013 668.580261,664.719055 669.697144,664.059204
	C669.235840,664.686646 668.460327,665.341980 667.330017,665.990234
z"/>
    <path fill="#F9FAF2" opacity="1.000000" stroke="none"
          d="
M774.217773,660.291260
	C774.936340,660.165222 775.864502,660.301331 776.920349,660.701721
	C776.174500,660.828491 775.300964,660.690979 774.217773,660.291260
z"/>
    <path fill="#F9FAF2" opacity="1.000000" stroke="none"
          d="
M673.400024,662.015747
	C673.832520,661.382202 674.612915,660.742981 675.705322,660.068909
	C675.260925,660.692688 674.504456,661.351318 673.400024,662.015747
z"/>
    <path fill="#FDFAEF" opacity="1.000000" stroke="none"
          d="
M849.956909,494.702850
	C849.294128,494.271820 848.647949,493.473724 847.938599,492.364990
	C848.574829,492.814819 849.274170,493.575317 849.956909,494.702850
z"/>
    <path fill="#FDFAEF" opacity="1.000000" stroke="none"
          d="
M851.931885,497.734680
	C851.273560,497.294250 850.645264,496.487213 849.967651,495.368164
	C850.599548,495.826782 851.280762,496.597412 851.931885,497.734680
z"/>
    <path fill="#F9FAF2" opacity="1.000000" stroke="none"
          d="
M792.090332,670.943970
	C792.417419,670.507568 792.847229,670.301147 793.629150,670.031006
	C793.385132,670.369507 792.789124,670.771729 792.090332,670.943970
z"/>
    <path fill="#FDFAEF" opacity="1.000000" stroke="none"
          d="
M787.974365,461.597717
	C787.451782,461.760071 786.892090,461.637726 786.157837,461.279358
	C786.634644,461.133240 787.285950,461.223114 787.974365,461.597717
z"/>
    <path fill="#F9FAF2" opacity="1.000000" stroke="none"
          d="
M636.062622,530.922119
	C635.531128,530.583130 635.255127,530.084717 634.979004,529.292542
	C635.425354,529.586731 635.871704,530.174805 636.062622,530.922119
z"/>
    <path fill="#F9FAF2" opacity="1.000000" stroke="none"
          d="
M750.031006,454.547668
	C750.542114,454.335724 751.104065,454.396912 751.850586,454.684082
	C751.384094,454.880341 750.732971,454.850586 750.031006,454.547668
z"/>
    <path fill="#FDFAEF" opacity="1.000000" stroke="none"
          d="
M853.156372,499.865204
	C852.580872,499.582550 852.250488,499.129364 851.893677,498.387787
	C852.378723,498.631134 852.890076,499.162903 853.156372,499.865204
z"/>
    <path fill="#F9FAF2" opacity="1.000000" stroke="none"
          d="
M628.029419,539.422119
	C628.527100,539.316956 629.060547,539.487671 629.782593,539.875854
	C629.335815,539.961548 628.700500,539.829834 628.029419,539.422119
z"/>
    <path fill="#F9FAF2" opacity="1.000000" stroke="none"
          d="
M640.732910,554.031067
	C640.565796,554.614380 640.094360,555.225403 639.303528,555.781372
	C639.465576,555.170532 639.947083,554.614624 640.732910,554.031067
z"/>
    <path fill="#FDFAEF" opacity="1.000000" stroke="none"
          d="
M856.102051,544.906677
	C855.632202,544.547729 855.404236,544.044617 855.234070,543.259277
	C855.642578,543.572144 855.993286,544.167358 856.102051,544.906677
z"/>
    <path fill="#FDFAEF" opacity="1.000000" stroke="none"
          d="
M852.939575,552.073242
	C853.424805,552.434631 853.656372,552.940063 853.838379,553.731506
	C853.421143,553.417419 853.053528,552.817383 852.939575,552.073242
z"/>
    <path fill="#FDFAEF" opacity="1.000000" stroke="none"
          d="
M851.897949,548.096069
	C852.405701,548.440552 852.665039,548.935852 852.888184,549.721924
	C852.451111,549.424133 852.050293,548.835449 851.897949,548.096069
z"/>
    <path fill="#F9FAF2" opacity="1.000000" stroke="none"
          d="
M744.131958,453.281342
	C744.428650,453.048615 744.883301,453.031403 745.679382,453.022369
	C745.443787,453.185974 744.866821,453.341400 744.131958,453.281342
z"/>
    <path fill="#DFC172" opacity="1.000000" stroke="none"
          d="
M795.806152,452.337738
	C795.894531,452.298767 795.838379,452.548157 795.855103,452.672119
	C795.649902,452.673431 795.598572,452.533630 795.806152,452.337738
z"/>
    <path fill="#DFC172" opacity="1.000000" stroke="none"
          d="
M652.477539,698.490479
	C652.501221,698.494568 652.453918,698.486450 652.477539,698.490479
z"/>
    <path fill="#FEFFFE" opacity="1.000000" stroke="none"
          d="
M679.000000,544.000000
	C679.653381,543.197937 680.306763,542.395935 680.989624,541.267334
	C689.356445,541.574585 697.693848,542.208313 706.720764,543.159973
	C708.943420,543.036072 710.476562,542.594360 712.009644,542.152588
	C712.436218,542.054626 712.862732,541.956665 713.851624,542.166626
	C717.214600,543.351196 719.735107,543.451965 721.006714,540.093994
	C723.433472,539.091431 725.860229,538.088806 728.891846,537.323608
	C734.230530,538.071106 744.058533,533.356262 745.521729,529.479248
	C746.099182,527.949036 745.719177,525.919983 745.298584,524.237244
	C745.178162,523.755737 743.306213,523.306152 742.380554,523.505676
	C739.239075,524.182739 736.108032,525.007690 733.086426,526.092041
	C731.896606,526.519043 731.005615,527.778687 729.978577,528.659180
	C727.952576,528.821655 725.926514,528.984070 723.194946,528.805176
	C717.992920,527.309143 713.496460,526.154541 708.981873,524.707642
	C708.659485,523.949829 708.355164,523.484314 708.050903,523.018799
	C708.078918,522.260986 708.106934,521.503174 708.212769,520.374390
	C712.106506,520.057190 713.055786,517.199829 714.082031,513.967529
	C714.854858,513.704163 715.567505,513.832947 716.779236,514.200806
	C717.859863,514.176208 718.441345,513.912598 719.022827,513.648926
	C724.371704,513.456665 729.720520,513.264404 735.597290,513.533203
	C738.729309,517.340576 741.843872,516.322205 744.990295,515.030945
	C749.506592,516.509583 754.022827,517.988220 758.795898,520.021423
	C759.691284,520.745605 760.329895,520.915161 760.968567,521.084778
	C762.510681,521.909973 764.052795,522.735168 765.786987,524.209229
	C766.235229,525.943787 766.127808,527.418701 766.806091,528.052368
	C771.419617,532.362000 775.702942,537.199951 782.151062,538.938110
	C784.754211,543.045105 787.357422,547.152100 790.005249,551.615967
	C788.892517,559.423035 788.892517,559.423035 781.155273,555.077454
	C780.197266,554.318359 779.606934,553.565186 778.990601,552.103027
	C778.676025,543.638367 774.327759,539.092041 767.082031,538.970093
	C765.432495,537.602966 763.687988,536.334045 762.152710,534.848816
	C758.716064,531.524109 755.351074,530.970337 751.203857,534.905640
	C749.267822,535.874451 747.334717,536.429871 746.907715,537.556274
	C745.623962,540.942322 744.927490,544.551025 744.001831,548.072815
	C742.900696,548.414795 741.799561,548.756836 740.272400,548.675903
	C737.798584,548.188538 735.086975,547.266541 733.837585,548.233521
	C731.014038,550.418945 731.336731,558.966492 734.093079,561.511963
	C739.927246,566.899658 745.940918,572.095154 751.963440,577.273560
	C752.621399,577.839233 753.818909,577.777283 754.766235,578.006409
	C754.820435,578.450623 754.874634,578.894836 754.487488,579.674316
	C747.191101,582.206055 745.046570,585.571716 745.049072,594.129578
	C741.609314,594.447327 738.169495,594.765015 734.314331,594.592163
	C730.515991,592.100342 727.133118,590.099182 723.750244,588.097961
	C721.158875,583.984619 718.567444,579.871277 716.255371,575.145447
	C720.486267,566.182129 716.383850,558.682556 713.863342,551.082458
	C713.563049,550.176697 711.533752,549.844360 710.305847,549.246216
	C699.721313,548.398987 689.136719,547.551697 678.342529,546.197083
	C678.421875,545.126465 678.710938,544.563232 679.000000,544.000000
z"/>
    <path fill="#E9F6F9" opacity="1.000000" stroke="none"
          d="
M527.609924,369.372986
	C535.448364,373.515106 541.490906,379.036926 545.946777,386.308167
	C548.782104,390.934875 547.656189,395.031799 544.519165,399.484467
	C532.792236,373.483398 509.389893,366.020844 483.521271,360.259521
	C499.759491,359.470184 513.947876,362.282379 527.609924,369.372986
z"/>
    <path fill="#FBFDFC" opacity="1.000000" stroke="none"
          d="
M635.117065,427.830933
	C639.679077,432.902344 640.157349,438.865906 636.617981,442.906921
	C633.333313,446.657196 626.537476,447.313141 622.442627,444.275177
	C618.426880,441.295898 617.186096,435.329742 619.637329,430.786072
	C622.452026,425.568665 628.249390,424.356628 635.117065,427.830933
z"/>
    <path fill="#FBFDFC" opacity="1.000000" stroke="none"
          d="
M707.633667,523.038208
	C708.355164,523.484314 708.659485,523.949829 708.645508,524.740601
	C707.214233,526.305908 706.101257,527.546021 704.988281,528.786133
	C701.906189,528.232361 698.824097,527.678589 695.366699,526.608765
	C694.708618,525.343201 694.646484,524.236755 694.106506,523.902771
	C690.943726,521.946472 687.852173,519.554199 684.376404,518.523315
	C681.436401,517.651306 678.007874,518.426331 674.795593,518.472412
	C671.963501,516.906677 669.131348,515.341003 666.130737,513.096436
	C665.213257,506.583862 662.542664,504.896942 657.861694,507.300598
	C656.439697,506.039398 655.017761,504.778168 653.389282,503.281921
	C655.459351,498.571777 658.162720,499.978149 661.127441,502.344604
	C674.711426,513.187622 689.702637,520.939880 707.633667,523.038208
z"/>
    <path fill="#FEFFFE" opacity="1.000000" stroke="none"
          d="
M555.000732,351.005493
	C555.346130,351.098877 555.534058,351.344269 555.721985,351.589691
	C555.450500,351.664368 555.179077,351.739044 554.725342,351.644958
	C554.543030,351.476227 554.843201,351.157562 555.000732,351.005493
z"/>
    <path fill="#F9FAF2" opacity="1.000000" stroke="none"
          d="
M782.071533,538.605286
	C775.702942,537.199951 771.419617,532.362000 766.806091,528.052368
	C766.127808,527.418701 766.235229,525.943787 765.968628,524.483154
	C771.302795,528.829651 776.647400,533.551025 782.071533,538.605286
z"/>
    <path fill="#F9FAF2" opacity="1.000000" stroke="none"
          d="
M712.747437,499.640503
	C706.814819,499.039337 710.291443,495.263062 710.695312,492.249695
	C711.577698,494.429230 712.195068,496.842651 712.747437,499.640503
z"/>
    <path fill="#F9FAF2" opacity="1.000000" stroke="none"
          d="
M744.709717,514.783936
	C741.843872,516.322205 738.729309,517.340576 736.053833,513.636963
	C738.797974,513.698730 741.613586,514.117859 744.709717,514.783936
z"/>
    <path fill="#F9FAF2" opacity="1.000000" stroke="none"
          d="
M718.764282,513.525024
	C718.441345,513.912598 717.859863,514.176208 717.142883,514.229858
	C717.506836,513.813599 718.006226,513.607422 718.764282,513.525024
z"/>
    <path fill="#F9FAF2" opacity="1.000000" stroke="none"
          d="
M760.813599,520.828369
	C760.329895,520.915161 759.691284,520.745605 759.026550,520.286743
	C759.553162,520.188965 760.105896,520.380432 760.813599,520.828369
z"/>
    <path fill="#FBFDFC" opacity="1.000000" stroke="none"
          d="
M754.838745,577.631470
	C753.818909,577.777283 752.621399,577.839233 751.963440,577.273560
	C745.940918,572.095154 739.927246,566.899658 734.093079,561.511963
	C731.336731,558.966492 731.014038,550.418945 733.837585,548.233521
	C735.086975,547.266541 737.798584,548.188538 739.923218,548.627075
	C734.042480,551.754333 733.432190,556.117554 738.570740,560.200073
	C740.234314,561.521729 742.171326,562.576721 744.119995,563.447754
	C750.191040,566.161194 753.938416,570.602234 754.838745,577.631470
z"/>
    <path fill="#FBFDFC" opacity="1.000000" stroke="none"
          d="
M710.370728,549.677490
	C711.533752,549.844360 713.563049,550.176697 713.863342,551.082458
	C716.383850,558.682556 720.486267,566.182129 716.238037,574.779541
	C714.106079,566.720459 712.270874,558.414612 710.370728,549.677490
z"/>
    <path fill="#FBFDFC" opacity="1.000000" stroke="none"
          d="
M745.401184,594.090454
	C745.046570,585.571716 747.191101,582.206055 754.400757,580.001465
	C754.912903,586.701599 751.399170,591.059143 745.401184,594.090454
z"/>
    <path fill="#FBFDFC" opacity="1.000000" stroke="none"
          d="
M744.385986,548.081665
	C744.927490,544.551025 745.623962,540.942322 746.907715,537.556274
	C747.334717,536.429871 749.267822,535.874451 750.918335,535.089233
	C751.126404,536.916809 750.712708,538.720581 750.773865,540.508118
	C750.921326,544.821960 749.142761,547.439392 744.385986,548.081665
z"/>
    <path fill="#F9FAF2" opacity="1.000000" stroke="none"
          d="
M767.215088,539.271973
	C774.327759,539.092041 778.676025,543.638367 778.935547,551.815430
	C775.053589,548.015747 771.200928,543.794739 767.215088,539.271973
z"/>
    <path fill="#FBFDFC" opacity="1.000000" stroke="none"
          d="
M723.902649,588.407227
	C727.133118,590.099182 730.515991,592.100342 733.950928,594.440491
	C730.687073,592.758423 727.371033,590.737427 723.902649,588.407227
z"/>
    <path fill="#FBFDFC" opacity="1.000000" stroke="none"
          d="
M678.619751,543.998901
	C678.710938,544.563232 678.421875,545.126465 678.022217,545.990234
	C676.460022,546.025818 675.008423,545.760864 673.274292,545.260376
	C674.741028,544.682495 676.490295,544.340149 678.619751,543.998901
z"/>
    <path fill="#DFC172" opacity="1.000000" stroke="none"
          d="
M600.987122,606.345642
	C601.436157,604.200867 601.886230,602.395569 602.593689,600.343994
	C606.150696,609.259399 609.411133,618.435547 612.780457,627.571533
	C613.517761,629.570679 614.642639,631.426758 615.650879,633.684082
	C613.883057,633.713074 612.053406,633.406616 609.804749,633.101318
	C608.651794,631.604797 607.917969,630.107239 607.469238,628.232422
	C607.315430,627.270203 606.876465,626.685059 606.437500,626.099976
	C604.954834,621.351501 603.472168,616.603088 602.006348,611.128601
	C601.766663,609.606323 601.510132,608.810059 601.253662,608.013794
	C601.165100,607.570862 601.076599,607.127991 600.987122,606.345642
z"/>
    <path fill="#BAB888" opacity="1.000000" stroke="none"
          d="
M600.485840,641.808105
	C599.795044,642.087952 599.065613,642.048828 597.964233,642.013367
	C594.226685,634.020996 590.861084,626.024963 587.495483,618.028992
	C588.119385,617.751465 588.743286,617.473938 589.367249,617.196411
	C592.003296,623.296997 594.639343,629.397644 597.038513,635.885986
	C596.657227,636.637024 596.512817,637.000305 596.368408,637.363647
	C596.855408,637.332092 597.342346,637.300537 597.829346,637.269043
	C598.701965,638.675720 599.574585,640.082458 600.485840,641.808105
z"/>
    <path fill="#DFC172" opacity="1.000000" stroke="none"
          d="
M597.729309,636.964111
	C597.342346,637.300537 596.855408,637.332092 596.368408,637.363647
	C596.512817,637.000305 596.657227,636.637024 597.009644,636.220093
	C597.354919,636.330750 597.492126,636.494934 597.729309,636.964111
z"/>
    <path fill="#F0C15D" opacity="1.000000" stroke="none"
          d="
M606.524170,626.421143
	C606.876465,626.685059 607.315430,627.270203 607.447388,627.907104
	C606.963867,627.553406 606.787415,627.147888 606.524170,626.421143
z"/>
    <path fill="#BAB888" opacity="1.000000" stroke="none"
          d="
M601.191406,608.336609
	C601.510132,608.810059 601.766663,609.606323 601.986572,610.731323
	C601.676453,610.259888 601.402832,609.459656 601.191406,608.336609
z"/>
    <path fill="#FEFFFE" opacity="1.000000" stroke="none"
          d="
M622.660461,657.351685
	C623.066895,657.463989 623.586548,657.898254 624.042053,658.692139
	C623.576538,658.592468 623.175049,658.133118 622.660461,657.351685
z"/>
    <path fill="#DFC172" opacity="1.000000" stroke="none"
          d="
M612.888184,640.362793
	C613.233215,640.536804 613.591919,641.021240 613.940796,641.829529
	C613.587891,641.659973 613.244812,641.166626 612.888184,640.362793
z"/>
    <path fill="#DFC172" opacity="1.000000" stroke="none"
          d="
M611.853760,638.359131
	C612.195679,638.521790 612.566223,638.989136 612.921448,639.778503
	C612.564880,639.621582 612.223572,639.142700 611.853760,638.359131
z"/>
    <path fill="#BAB888" opacity="1.000000" stroke="none"
          d="
M598.360474,644.212036
	C598.625671,644.124023 598.810120,644.326416 598.952576,644.806702
	C598.688782,644.916382 598.478455,644.722351 598.360474,644.212036
z"/>
    <path fill="#F9FAF2" opacity="1.000000" stroke="none"
          d="
M730.374634,528.734009
	C731.005615,527.778687 731.896606,526.519043 733.086426,526.092041
	C736.108032,525.007690 739.239075,524.182739 742.380554,523.505676
	C743.306213,523.306152 745.178162,523.755737 745.298584,524.237244
	C745.719177,525.919983 746.099182,527.949036 745.521729,529.479248
	C744.058533,533.356262 734.230530,538.071106 729.250244,537.285278
	C733.615967,533.911194 738.228088,530.812866 743.164368,527.316650
	C743.459595,526.703003 743.430725,526.487305 743.401855,526.271545
	C743.196838,526.441345 742.991760,526.611206 742.786743,526.781006
	C738.781372,527.456970 734.776062,528.132935 730.374634,528.734009
z"/>
    <path fill="#F9FAF2" opacity="1.000000" stroke="none"
          d="
M675.022583,518.711609
	C678.007874,518.426331 681.436401,517.651306 684.376404,518.523315
	C687.852173,519.554199 690.943726,521.946472 694.106506,523.902771
	C694.646484,524.236755 694.708618,525.343201 695.002686,526.462585
	C688.425781,524.205139 681.837708,521.578003 675.022583,518.711609
z"/>
    <path fill="#F9FAF2" opacity="1.000000" stroke="none"
          d="
M705.409912,528.890015
	C706.101257,527.546021 707.214233,526.305908 708.663574,525.032898
	C713.496460,526.154541 717.992920,527.309143 722.759277,528.765625
	C717.296570,529.043030 711.564026,529.018494 705.409912,528.890015
z"/>
    <path fill="#F9FAF2" opacity="1.000000" stroke="none"
          d="
M658.041748,507.570496
	C662.542664,504.896942 665.213257,506.583862 665.932495,512.825928
	C663.342346,511.436371 660.782043,509.638397 658.041748,507.570496
z"/>
    <path fill="#F9FAF2" opacity="1.000000" stroke="none"
          d="
M720.628418,540.064697
	C719.735107,543.451965 717.214600,543.351196 714.180847,542.178833
	C716.048523,541.267151 718.149292,540.651245 720.628418,540.064697
z"/>
    <path fill="#F9FAF2" opacity="1.000000" stroke="none"
          d="
M711.632568,542.096924
	C710.476562,542.594360 708.943420,543.036072 707.184082,543.191589
	C708.390320,542.617249 709.822937,542.329224 711.632568,542.096924
z"/>
    <path fill="#F5C251" opacity="1.000000" stroke="none"
          d="
M742.862305,526.857056
	C742.991760,526.611206 743.196838,526.441345 743.401855,526.271545
	C743.430725,526.487305 743.459595,526.703003 743.290527,527.000122
	C743.092590,527.081482 742.937866,526.933105 742.862305,526.857056
z"/>
</svg>