
<svg version="1.1" id="Layer_1" xmlns="http://www.w3.org/2000/svg" xmlns:xlink="http://www.w3.org/1999/xlink" x="0px" y="0px"
     width="100%" viewBox="0 0 1024 1024" enable-background="new 0 0 1024 1024" xml:space="preserve">
<path fill="#FFFFFF" opacity="1.FFFFFF" stroke="none"
      d="
M225.714508,633.808350 
	C229.682587,613.858032 230.542786,594.141663 230.274704,574.259094 
	C230.093155,560.794006 231.257172,547.311768 231.779205,533.835571 
	C231.879715,531.240967 231.793640,528.639160 231.793640,525.967224 
	C228.582260,525.956543 227.850891,528.086182 226.837311,529.626709 
	C219.673798,540.514587 212.177429,551.097290 201.617996,559.074585 
	C200.244690,560.112061 199.158142,561.424133 199.355789,563.285339 
	C200.378723,572.917969 193.512711,576.835510 186.594421,580.322205 
	C180.736115,583.274597 174.106659,583.682190 167.675018,584.550598 
	C165.003510,584.911316 163.925690,583.394470 164.103348,581.022156 
	C164.288834,578.544983 164.206131,575.770447 165.304321,573.686340 
	C170.333908,564.141724 175.783844,554.729980 188.410858,554.287476 
	C194.711609,554.066711 198.905609,550.654846 202.659088,546.190308 
	C208.652039,539.062134 212.381668,530.722839 215.658005,522.127319 
	C220.367889,509.770905 226.199234,498.052948 234.504929,487.623688 
	C239.328125,481.567291 241.354691,473.961151 244.908722,467.185028 
	C251.190384,455.208374 258.028442,443.571289 266.470917,432.997040 
	C279.313110,416.912048 296.196228,406.104309 314.179596,396.598633 
	C343.943481,380.866119 375.890289,377.436859 408.782410,378.929596 
	C416.167694,379.264771 416.560181,380.275848 413.052032,387.002625 
	C409.587097,393.646454 405.869293,400.168488 403.294647,407.236450 
	C396.694458,425.355377 402.469696,441.480774 419.049072,451.388062 
	C424.348541,454.554840 429.865417,457.271179 435.531769,459.717133 
	C444.112305,463.421021 451.751556,468.255463 455.900726,477.172607 
	C458.810455,483.426025 463.399902,488.211792 469.430054,491.431458 
	C478.365906,496.202454 485.421539,503.334381 493.143250,509.647705 
	C499.512787,514.855530 506.333527,519.132263 514.842346,520.219360 
	C529.143799,522.046448 539.504333,516.231262 543.975281,502.574402 
	C546.950684,493.486145 547.512939,484.012512 545.356384,474.345764 
	C543.075195,474.760956 543.427612,476.496674 543.263550,477.813080 
	C542.103333,487.121490 539.630066,496.087555 536.239929,504.808136 
	C532.938171,513.301697 525.925415,517.136902 516.785400,515.724182 
	C505.256622,513.942261 496.786896,507.029907 488.959991,499.143158 
	C484.597351,494.747162 480.100708,490.624146 474.691193,487.521149 
	C468.454987,483.943939 463.873627,478.643463 460.345764,472.501526 
	C456.526276,465.851715 450.903564,461.432281 444.122223,458.222992 
	C439.153595,455.871552 434.189270,453.507812 429.274994,451.045837 
	C425.096405,448.952454 421.100342,446.547852 417.600250,443.399872 
	C407.785706,434.572479 403.614044,424.276062 408.659973,411.220612 
	C410.950134,405.295135 413.358521,399.452576 416.640137,394.026581 
	C424.654999,380.774567 432.390869,367.329895 440.962219,354.443787 
	C454.374878,334.279236 473.924744,327.611847 497.373871,330.261322 
	C514.796509,332.229889 531.302063,337.050568 546.744751,345.387695 
	C548.980652,346.594788 550.812012,346.889832 553.094299,345.110046 
	C555.780151,343.015472 559.326233,342.888672 562.610718,342.400391 
	C583.301086,339.324249 603.622559,340.050781 622.465576,350.219818 
	C637.398987,358.279083 649.021057,370.277618 658.711548,384.030640 
	C683.390625,419.055786 699.114441,457.782227 705.910461,500.106842 
	C706.567200,504.196808 706.881409,508.057037 702.018555,510.211761 
	C699.811401,511.189728 698.582764,513.597534 698.363159,515.919250 
	C697.895325,520.865723 694.853699,520.927551 691.234131,520.153198 
	C683.080627,518.408875 676.098877,514.170837 669.289001,509.626129 
	C666.241821,507.592560 663.370056,505.296997 660.333923,503.245819 
	C658.776733,502.193817 657.212280,500.535553 654.320251,502.555939 
	C666.756897,518.061340 684.794556,523.474426 702.879272,529.661194 
	C699.856628,534.304199 696.010925,536.896362 694.067810,541.044189 
	C693.188599,542.920959 690.422058,542.466980 688.493591,542.244080 
	C676.307556,540.835693 664.703735,537.370361 653.903320,531.547241 
	C647.376587,528.028320 641.090576,524.062805 634.623901,520.255310 
	C632.490845,523.286377 634.296631,525.035034 635.354248,526.704956 
	C637.877869,530.689575 638.938110,534.924255 638.151245,539.572144 
	C637.771729,541.814209 636.708618,543.765625 634.519836,544.623230 
	C632.386536,545.459045 631.196228,543.632507 629.875854,542.434998 
	C622.650696,535.882324 614.068115,531.379578 605.764099,526.460144 
	C604.309937,525.598694 602.717346,525.309021 600.958740,525.573669 
	C593.880859,526.639038 586.808289,527.800598 579.693665,528.542786 
	C572.661987,529.276367 567.126709,532.528198 562.338135,537.478577 
	C548.100342,552.197449 538.895996,569.676392 533.685486,589.379517 
	C528.140991,610.345764 523.823975,631.458069 523.805908,653.318970 
	C523.796326,664.890503 526.407593,675.743469 530.436707,686.409119 
	C530.966248,687.810913 531.537659,689.214172 531.875305,690.666565 
	C532.261963,692.329468 533.461548,694.494873 530.688904,695.171326 
	C528.253967,695.765320 526.056152,695.379272 525.231079,692.354065 
	C524.533264,689.795654 523.714966,687.253052 522.715149,684.799072 
	C521.788025,682.523315 520.272827,680.640076 517.418762,681.271484 
	C514.751404,681.861511 513.774536,684.032104 513.461243,686.464722 
	C513.271606,687.937317 513.366272,689.458679 513.451477,690.951477 
	C513.561646,692.883118 513.627258,694.744385 511.109406,695.148315 
	C508.621246,695.547485 506.924866,694.646973 506.155670,692.118530 
	C505.431305,689.737427 504.756012,687.315430 503.737122,685.056702 
	C502.591583,682.517212 500.634552,680.614929 497.666443,680.490540 
	C494.671204,680.365051 493.412872,682.696472 492.178711,684.916565 
	C491.935852,685.353394 491.535767,685.772339 491.479126,686.232910 
	C490.416077,694.877563 484.220459,695.084106 477.635803,694.734375 
	C474.476837,694.566528 471.312683,694.471619 468.149597,694.411194 
	C462.194183,694.297302 460.945892,693.444275 461.045349,687.465576 
	C461.272461,673.813232 461.767120,660.162292 462.362305,646.519958 
	C462.893616,634.341858 462.962433,622.183411 460.581665,610.190430 
	C458.069824,597.537292 456.411713,596.841736 445.093018,602.180420 
	C425.353271,611.491028 404.225311,615.261292 382.732880,617.050232 
	C363.930176,618.615234 345.116943,618.191833 326.495575,614.618652 
	C323.946259,614.129456 321.857056,614.467651 320.402863,616.779785 
	C315.220337,625.019836 307.442810,630.633789 299.954926,636.405029 
	C287.005066,646.386047 277.827148,658.083069 279.376678,675.576721 
	C279.649414,678.655823 278.155823,680.311340 275.000458,680.255188 
	C271.627258,680.195251 268.376465,680.944458 265.145538,681.746460 
	C261.253052,682.712585 257.680267,683.175049 253.543991,681.603210 
	C247.154251,679.174927 242.152191,682.578125 241.582581,689.500000 
	C241.244263,693.611267 239.545090,694.551575 235.945175,694.417175 
	C231.285645,694.243164 226.614090,694.419617 221.948410,694.374512 
	C215.240860,694.309631 211.491776,689.812073 212.469009,682.866943 
	C213.612869,674.737671 217.042892,667.232849 219.100021,659.342346 
	C221.282303,650.971863 224.046402,642.753296 225.714508,633.808350 
M632.526001,445.292999 
	C638.105408,442.571869 640.118042,437.601715 637.820374,432.218048 
	C635.516235,426.818787 630.635620,424.276337 625.868469,425.991791 
	C620.607971,427.884705 618.355835,432.930695 620.035461,439.060822 
	C621.436340,444.173584 625.002991,446.138885 632.526001,445.292999 
M536.225647,375.243164 
	C523.851135,366.982758 517.293091,364.495697 511.315399,366.543030 
	C524.624756,372.752716 535.614014,380.868073 542.935547,393.414001 
	C545.751099,390.520996 545.185486,388.254883 544.669617,386.291382 
	C543.481079,381.767212 540.106567,378.709045 536.225647,375.243164 
z"/>
    <path fill="#FFFFFF" opacity="1.FFFFFF" stroke="none"
          d="
M749.658691,674.650635 
	C745.816711,690.939514 749.364563,688.156799 733.357605,688.178772 
	C726.374268,688.188416 719.391174,687.524658 712.405701,687.217896 
	C709.675720,687.098022 707.779358,685.916321 707.773071,683.079773 
	C707.748108,671.847656 702.135620,665.982727 691.561035,662.075867 
	C683.954285,659.265564 678.026794,658.034302 671.743469,663.623657 
	C670.639709,664.605469 669.163757,665.155151 667.953186,666.033264 
	C664.921631,668.232361 662.952515,667.499329 660.430298,664.668823 
	C654.119629,657.586975 647.452881,650.798889 640.604736,644.231018 
	C637.787170,641.528748 636.794556,639.341980 639.749023,636.399353 
	C646.861389,629.315430 647.723633,622.035278 643.940796,612.258362 
	C640.801636,604.145142 637.052551,599.812866 628.537903,598.210083 
	C617.831238,596.194580 618.904053,597.491760 619.075806,585.974426 
	C619.190002,578.315979 619.394592,570.656982 619.358398,562.999146 
	C619.345886,560.346313 620.330200,558.951965 622.868530,558.453003 
	C625.312073,557.972534 627.722717,557.024109 630.172241,556.931946 
	C637.281311,556.664246 640.705200,552.571838 642.657410,546.248291 
	C643.702759,542.861938 644.966675,539.399170 647.650513,536.681824 
	C650.004944,538.136841 650.049438,540.460083 650.499207,542.470032 
	C652.138428,549.795959 654.631836,556.844666 657.002441,563.949402 
	C660.679138,574.968628 664.850891,585.768738 667.787842,597.106995 
	C675.281189,626.035156 704.372620,645.477783 735.531250,643.640686 
	C765.204590,641.891113 790.458252,619.336060 794.336975,589.551392 
	C799.346313,551.083801 776.518433,522.957031 740.903687,514.417786 
	C733.697266,512.689941 726.356384,512.622559 719.110474,514.080933 
	C714.751404,514.958252 712.922302,513.566528 712.820496,509.174866 
	C712.681274,503.169067 711.349731,497.316498 710.075867,491.471039 
	C708.390808,483.738403 712.568909,477.254913 714.633362,470.337738 
	C715.130859,468.670929 717.019043,468.721466 718.528198,468.770508 
	C728.348206,469.089355 738.166382,469.462189 747.986755,469.766846 
	C750.608582,469.848206 751.877808,471.151245 752.267822,473.681213 
	C752.925842,477.949921 753.811523,482.184906 754.412476,486.460632 
	C754.905212,489.966339 756.539917,492.312286 760.075378,493.167023 
	C765.483032,494.474365 770.375366,497.009277 775.071350,499.858063 
	C777.674805,501.437500 779.866577,501.481171 782.452271,499.950775 
	C786.317383,497.663055 790.316833,495.599396 794.288574,493.495850 
	C796.688660,492.224731 798.866028,491.963409 800.979919,494.374207 
	C807.129395,501.387238 813.350708,508.341827 819.710754,515.163818 
	C822.628540,518.293579 823.709778,521.322327 820.399658,524.651611 
	C813.015259,532.078796 812.755676,539.318115 816.825439,549.401306 
	C820.496155,558.495728 824.475830,564.029175 834.228760,565.069031 
	C838.463135,565.520508 840.450867,567.996216 840.183472,572.608948 
	C839.672791,581.417236 839.471863,590.251160 839.437317,599.075623 
	C839.423584,602.570862 837.727783,603.816223 834.708435,604.187195 
	C830.745239,604.674072 826.782654,605.165710 822.820190,605.658630 
	C819.942749,606.016541 818.227173,607.341125 817.154846,610.328918 
	C815.192688,615.795776 812.741760,621.109436 810.165466,626.324341 
	C808.903992,628.877930 808.885681,630.920715 810.416992,633.279785 
	C812.591675,636.629944 814.494751,640.155212 816.603394,643.549988 
	C818.068909,645.909546 817.781311,647.796875 815.735474,649.720703 
	C808.941101,656.109680 802.231140,662.588501 795.504883,669.049561 
	C793.098999,671.360657 790.516479,671.844788 788.009644,669.444336 
	C780.076355,661.847717 771.592163,660.006104 761.902100,666.227051 
	C760.016296,667.437744 757.527527,667.886475 755.246826,668.263855 
	C751.717163,668.848083 750.010925,670.812439 749.658691,674.650635 
z"/>
    <path fill="#FFFFFF" opacity="1.FFFFFF" stroke="none"
          d="
M402.302429,652.756714 
	C403.834747,664.600891 406.012939,675.862366 408.753754,687.030273 
	C410.376221,693.641174 409.688232,694.371033 403.129486,694.381958 
	C387.970764,694.407349 372.811981,694.424377 357.653259,694.405823 
	C349.556549,694.395874 346.650146,691.798950 346.104858,683.429504 
	C345.488190,673.964783 345.304291,664.462891 343.738159,655.089050 
	C342.224152,646.027161 339.794189,637.238281 335.499207,629.021179 
	C333.004944,624.249207 333.834198,623.065674 339.229431,623.614685 
	C357.383179,625.462097 375.448608,625.166321 393.458435,621.986084 
	C399.074646,620.994324 399.900360,621.920288 400.295959,627.424438 
	C400.892426,635.723877 401.605469,644.014954 402.302429,652.756714 
z"/>
    <path fill="#FFFFFF" opacity="1.FFFFFF" stroke="none"
          d="
M610.194336,613.522217 
	C612.153442,615.875000 613.447754,617.631165 611.988220,621.085083 
	C611.086426,623.219116 613.240479,626.861572 614.454102,629.638306 
	C624.692383,653.063293 641.849976,670.299622 663.283325,683.577515 
	C679.316223,693.509888 696.591858,700.195862 715.375305,702.717712 
	C715.995422,702.800964 716.584778,703.113220 717.187744,703.318542 
	C716.926819,705.603333 715.311523,705.095886 714.146790,704.983459 
	C683.474121,702.022217 655.805664,692.131836 633.280212,670.160522 
	C615.633667,652.948120 605.164062,632.058533 600.761536,607.959839 
	C600.432983,606.161377 599.951355,604.374878 599.809814,602.561829 
	C599.520447,598.852173 597.549866,598.037842 594.071777,598.197632 
	C589.280457,598.417603 584.437317,598.191284 579.654419,597.746704 
	C573.097351,597.137085 569.397949,600.708191 570.501831,607.476257 
	C571.141663,611.399048 572.636841,615.174377 573.505066,619.070007 
	C574.457092,623.341553 574.866699,627.695190 572.620911,631.736572 
	C570.761230,635.083191 567.376587,635.796509 565.328613,632.996582 
	C558.988403,624.328003 549.981628,618.822083 541.588745,612.632019 
	C538.284119,610.194702 537.011963,607.575684 537.879761,603.740356 
	C542.555725,583.072571 549.097534,563.308960 564.195129,547.475403 
	C569.563904,541.844910 570.197083,541.726074 574.164673,548.203613 
	C580.085388,557.869812 586.518982,567.182251 593.466309,576.138367 
	C594.556824,577.544189 595.419861,579.267151 597.502808,579.517944 
	C599.682861,577.061035 597.707825,573.651611 599.753235,570.353333 
	C600.892456,578.556580 601.889771,585.994385 602.968506,593.420288 
	C603.757751,598.853149 604.931458,604.206726 606.639160,609.433289 
	C607.208801,611.176697 607.621460,613.051819 610.194336,613.522217 
z"/>
    <path fill="#FFFFFF" opacity="1.FFFFFF" stroke="none"
          d="
M774.341187,462.734924 
	C762.698547,457.641296 750.802490,454.795532 738.008972,452.891907 
	C748.896667,446.567322 796.828369,462.933533 816.092407,478.859375 
	C842.718628,500.871704 864.809204,551.265564 857.145813,573.267212 
	C848.562927,522.067566 824.163330,483.061371 774.341187,462.734924 
z"/>
    <path fill="#FFFFFF" opacity="1.FFFFFF" stroke="none"
          d="
M615.235657,671.732971 
	C599.415894,652.414978 585.493042,622.847046 586.155457,609.957825 
	C587.942871,610.470337 587.989807,611.988220 588.416504,613.303833 
	C593.795776,629.887695 601.122314,645.459534 612.260254,659.045288 
	C613.723572,660.830200 614.888000,662.552612 617.815430,662.534302 
	C620.211121,662.519287 622.325562,664.473572 621.924194,667.212585 
	C621.544128,669.806274 622.861755,671.290039 624.291687,672.899536 
	C633.083679,682.794983 642.899170,691.450867 654.477112,698.013794 
	C656.083252,698.924316 658.286682,699.327454 659.022339,702.573303 
	C641.687622,695.591675 627.760986,684.988159 615.235657,671.732971 
z"/>
    <path fill="#FFFFFF" opacity="1.FFFFFF" stroke="none"
          d="
M825.851074,475.164368 
	C816.594788,466.332275 806.541626,459.135620 795.777771,452.875122 
	C823.167175,454.583191 871.536560,515.629883 867.237549,543.071655 
	C859.727051,516.700562 846.136292,494.072174 825.851074,475.164368 
z"/>
    <path fill="#FFFFFF" opacity="1.FFFFFF" stroke="none"
          d="
M663.413452,563.071411 
	C660.353821,555.783691 657.927429,548.658630 656.718201,540.265076 
	C663.210632,540.971191 668.017883,543.845703 672.781128,546.553589 
	C671.877014,553.697388 665.640137,558.324768 666.222229,565.430603 
	C664.348877,565.248840 664.153198,564.122620 663.413452,563.071411 
z"/>
    <path fill="#FFFFFF" opacity="1.FFFFFF" stroke="none"
          d="
M566.281921,676.627563 
	C562.976257,672.826843 562.266663,668.714539 563.211121,664.266052 
	C563.546936,662.684448 563.764526,660.826233 565.799561,660.419861 
	C567.676025,660.045166 568.902039,661.314758 570.046448,662.524353 
	C574.628296,667.366882 574.051636,672.597473 571.170898,677.997559 
	C569.357910,678.682739 567.952393,677.799133 566.281921,676.627563 
z"/>
</svg>